<?xml version="1.0" encoding="iso-8859-1"?>
<!-- Generator: Adobe Illustrator 21.0.0, SVG Export Plug-In . SVG Version: 6.00 Build 0)  -->
<svg version="1.1" id="Lager_1" xmlns="http://www.w3.org/2000/svg" xmlns:xlink="http://www.w3.org/1999/xlink" x="0px" y="0px"
	 viewBox="0 0 5000 10000" style="enable-background:new 0 0 5000 10000;" xml:space="preserve">
<g>
	<g>
		<path d="M1283.302,2518.667c-6.137,86.929-10.525,173.979-13.188,261.084c-2.657,86.929-3.615,173.909-2.948,260.876
			c0.377,49.111,1.276,98.217,2.663,147.31c1,0,2,0,3,0c-0.088-1.812-0.225-3.634-0.238-5.449c-1,0-2,0-3,0
			c0.219,1.791,0.178,3.648,0.238,5.449c1,0,2,0,3,0c-0.443-8.979-0.886-17.958-1.329-26.937c-0.095-1.922-3.095-1.933-3,0
			c0.443,8.979,0.886,17.958,1.329,26.937c0.095,1.918,3.064,1.939,3,0c-0.059-1.801-0.018-3.658-0.238-5.449
			c-0.228-1.859-3.014-1.987-3,0c0.013,1.815,0.15,3.638,0.238,5.449c0.093,1.918,3.055,1.94,3,0
			c-2.455-86.909-3.366-173.861-2.605-260.802c0.762-87.021,3.181-174.03,7.339-260.955c2.354-49.203,5.27-98.377,8.739-147.514
			C1286.438,2516.74,1283.437,2516.749,1283.302,2518.667L1283.302,2518.667z"/>
	</g>
</g>
<g>
	<g>
		<path d="M1285.808,2484.647c-0.088,1.157-0.176,2.314-0.264,3.471c-0.061,0.809,0.733,1.5,1.5,1.5c0.863,0,1.439-0.689,1.5-1.5
			c0.088-1.157,0.176-2.314,0.264-3.471c0.062-0.809-0.734-1.5-1.5-1.5C1286.445,2483.147,1285.87,2483.836,1285.808,2484.647
			L1285.808,2484.647z"/>
	</g>
</g>
<g>
	<g>
		<path d="M1440.245,2052.861c-73.413,39.419-147.744,77.135-223.118,112.668c-76.112,35.881-153.291,69.391-231.448,100.563
			c-18.779,7.49-37.517,15.087-56.408,22.291c-17.69,6.745-35.632,12.589-53.501,18.807c-11.348,3.948-22.633,10.689-20.554,24.434
			c1.258,8.315,5.449,16.815,9.329,24.2c3.99,7.596,8.851,14.715,14.306,21.332c47.053,57.075,127.915,67.578,196.733,55.466
			c79.845-14.054,152.681-53.272,232.597-67.177c10.329-1.797,20.722-3.145,31.166-4.06c-0.432-0.752-0.863-1.505-1.295-2.257
			c-0.853,1.839-1.608,3.753-2.663,5.489c-0.422,0.695-3.032,3.88-1.229,0.262c0.981-1.968,3.603-3.143,5.585-3.548
			c-0.565-0.734-1.129-1.469-1.694-2.203c-10.207,22.273-20.366,44.57-30.156,67.03c-0.764,1.752,1.82,3.281,2.59,1.514
			c9.79-22.461,19.949-44.757,30.156-67.03c0.552-1.206-0.352-2.478-1.694-2.204c-3.488,0.712-11.952,6.687-7.632,11.007
			c4.133,4.133,8.293-6.576,9.326-8.803c0.431-0.929-0.056-2.366-1.295-2.257c-78.46,6.873-149.353,41.775-224.468,62.233
			c-70.895,19.308-153.874,23.166-214.147-26.005c-13.628-11.118-25.395-24.692-33.596-40.302
			c-4.038-7.686-9.296-17.421-9.223-26.319c0.07-8.497,7.147-13.251,14.224-16.225c7.327-3.08,15.127-5.13,22.644-7.689
			c9.11-3.102,18.163-6.366,27.177-9.736c18.646-6.971,37.118-14.394,55.598-21.789c74.624-29.861,148.525-61.305,221.407-95.215
			c73.232-34.073,145.492-70.221,216.858-108.043c8.659-4.589,17.305-9.205,25.939-13.841
			C1443.461,2054.537,1441.947,2051.946,1440.245,2052.861L1440.245,2052.861z"/>
	</g>
</g>
<g>
	<g>
		<path d="M1895.848,3129.632c17.682-164.095,35.667-328.162,52.988-492.295c17.068-161.731,32.095-324.046,31.815-486.826
			c-0.156-90.901-5.204-181.826-17.21-271.96c-0.251-1.886-3.255-1.911-3,0c21.562,161.877,20.399,325.741,9.682,488.415
			c-10.736,162.953-30.144,325.269-47.635,487.594c-9.88,91.691-19.76,183.381-29.64,275.072
			C1892.641,3131.549,1895.643,3131.534,1895.848,3129.632L1895.848,3129.632z"/>
	</g>
</g>
<g>
	<g>
		<path d="M1959.744,1843.518c2.191-31.043-11.058-60.046-31.808-82.58c-23.777-25.822-56.091-41.514-87.444-56.157
			c-68.283-31.89-141.606-52.214-216.392-61.186c-37.903-4.547-76.14-6.2-114.298-5.175c-41.886,1.126-83.295,8.457-125.024,11.637
			c-40.929,3.119-83.606,1.677-122.993-10.848c-38.448-12.226-75.046-29.774-113.888-40.828
			c-37.022-10.536-76.747-14.562-114.915-8.655c-35.792,5.539-70.41,18.703-101.102,37.892c-7.558,4.725-14.853,9.84-21.918,15.272
			c-1.509,1.161-0.017,3.768,1.514,2.59c28.76-22.112,61.777-38.489,96.914-47.609c37.563-9.75,76.557-9.91,114.562-2.414
			c38.772,7.648,75.014,23.908,111.889,37.571c18.504,6.856,37.214,13.335,56.761,16.417c19.312,3.045,38.973,5.189,58.547,5.109
			c40.632-0.165,80.843-6.742,121.204-10.591c38.164-3.639,76.585-3.613,114.818-0.956c74.521,5.179,148.277,21.385,217.676,49.143
			c17.726,7.09,35.15,14.933,52.217,23.489c15.911,7.977,32.047,16.125,46.444,26.665c25.479,18.652,47.042,45.282,52.971,76.943
			c1.501,8.015,1.84,16.143,1.267,24.267C1956.608,1845.445,1959.609,1845.437,1959.744,1843.518L1959.744,1843.518z"/>
	</g>
</g>
<g>
	<g>
		<path d="M857.523,1690.584c-1.711,4.155-3.183,8.385-4.412,12.708c-0.529,1.86,2.365,2.654,2.893,0.797
			c1.228-4.323,2.7-8.552,4.412-12.707C861.15,1689.598,858.249,1688.821,857.523,1690.584L857.523,1690.584z"/>
	</g>
</g>
<g>
	<g>
		<path d="M916.925,1629.371c-25.089,10.75-44.785,31.372-56.896,55.59c-0.861,1.722,1.726,3.243,2.59,1.514
			c11.914-23.823,31.143-43.939,55.819-54.514C920.209,1631.203,918.682,1628.618,916.925,1629.371L916.925,1629.371z"/>
	</g>
</g>
<g>
	<g>
		<path d="M1068.58,1840.92c15.54,8.07,30.918,16.442,46.208,24.973c15.123,8.438,31.218,16.245,45.394,26.187
			c6.254,4.386,12.571,9.836,19.605,12.834c8.222,3.504,15.615,7.535,23.148,12.362c13.536,8.673,27.275,16.865,40.681,25.765
			c3.324,2.207,6.676,4.398,10.134,6.389c2.654,1.528,5.385,1.933,7.835,3.806c4.802,3.67,9.062,7.838,14.868,9.732
			c3.566,1.163,6.475,3.691,9.614,5.88c3.528,2.461,7.084,4.881,10.663,7.266c6.95,4.631,13.996,9.118,21.087,13.53
			c6.939,4.318,13.755,8.619,21.233,11.955c7.525,3.357,13.831,7.606,20.528,12.373c13.657,9.722,27.417,19.299,41.258,28.756
			c7.537,5.15,15.098,10.266,22.673,15.36c7.731,5.198,15.35,11.103,23.55,15.535c5.303,2.866,11.662,4.598,17.286,1.555
			c5.617-3.04,4.214-8.996,1.951-13.935c-0.215-0.469-0.807-0.739-1.295-0.743c-1.431-0.011-2.666-0.091-4.096-0.418
			c-1.879-0.43-2.682,2.462-0.797,2.893c0.851,0.195,2.03,0.182,2.832,0.466c1.558,0.553,1.765,1.271,2.171,3.143
			c1.612,7.426-7.844,7.934-12.742,6.194c-7.339-2.608-13.947-8.296-20.356-12.59c-12.913-8.651-25.789-17.358-38.59-26.174
			c-12.925-8.902-25.771-17.919-38.529-27.059c-6.259-4.484-13.078-7.103-19.908-10.531c-6.999-3.513-13.58-8.049-20.205-12.217
			c-6.581-4.14-13.111-8.36-19.557-12.708c-3.082-2.079-6.146-4.187-9.189-6.324c-2.412-1.694-4.926-4.163-7.74-5.086
			c-1.55-0.508-2.511-0.382-4.125-1.227c-1.505-0.787-2.933-1.786-4.307-2.779c-2.983-2.157-5.728-5.514-8.952-7.261
			c-1.602-0.868-3.255-0.79-4.898-1.55c-3.549-1.64-6.907-4.196-10.169-6.351c-6.219-4.108-12.299-8.423-18.583-12.434
			c-6.419-4.097-13.157-7.635-19.579-11.729c-6.701-4.271-13.338-8.993-20.673-12.119c-3.05-1.3-6.38-2.267-9.25-3.935
			c-3.73-2.168-7.196-5.057-10.75-7.519c-15.084-10.453-31.351-19.054-47.365-28.016c-16.392-9.174-32.876-18.182-49.547-26.839
			C1068.383,1837.441,1066.864,1840.029,1068.58,1840.92L1068.58,1840.92z"/>
	</g>
</g>
<g>
	<g>
		<path d="M1172.814,1768.549c56.425,33.263,111.622,68.747,166.975,103.75c13.645,8.629,27.083,17.461,40.287,26.752
			c13.115,9.228,27.358,17.111,40.823,25.86c27.49,17.86,55.262,35.265,83.012,52.718c31.434,19.77,62.795,39.658,93.704,60.244
			c1.611,1.073,3.115-1.524,1.514-2.59c-54.859-36.538-111.347-70.506-166.619-106.396c-13.146-8.536-26.248-17.143-39.632-25.304
			c-14.068-8.578-27.301-18.429-41.202-27.291c-27.592-17.59-55.375-34.852-83.111-52.213
			c-31.284-19.582-62.44-39.374-94.238-58.119C1172.661,1764.976,1171.15,1767.568,1172.814,1768.549L1172.814,1768.549z"/>
	</g>
</g>
<g>
	<g>
		<path d="M1034.997,1704.828c39.096,11.13,75.849,28.683,111.263,48.42c1.688,0.941,3.203-1.649,1.514-2.59
			c-35.633-19.859-72.643-37.524-111.98-48.722C1033.934,1701.405,1033.14,1704.299,1034.997,1704.828L1034.997,1704.828z"/>
	</g>
</g>
<g>
	<g>
		<path d="M1609.971,2032.826c-69.154,74.754-155.289,130.596-250.713,165.684c-52.096,19.156-105.642,34.138-158.237,51.836
			c-51.947,17.479-103.413,36.388-154.32,56.696c-57.541,22.954-114.36,47.703-170.375,74.163c0.606,0.785,1.212,1.571,1.818,2.356
			c4.652-5.231,9.305-10.463,13.957-15.695c1.279-1.438-0.835-3.568-2.121-2.121c-4.652,5.232-9.305,10.463-13.957,15.695
			c-1.16,1.304,0.278,3.083,1.818,2.356c101.31-47.854,205.271-90.052,311.304-126.26c52.526-17.937,105.97-33.132,158.311-51.596
			c48.217-17.01,94.607-38.224,137.889-65.55c46.624-29.436,89.308-64.969,126.749-105.441
			C1613.402,2033.531,1611.286,2031.405,1609.971,2032.826L1609.971,2032.826z"/>
	</g>
</g>
<g>
	<g>
		<path d="M1399.318,2068.247c7.487,6.813,17.908,3.841,26.26,0.317c14.397-6.075,28.608-12.636,42.9-18.955
			c28.957-12.803,57.913-25.606,86.87-38.409c1.762-0.779,0.237-3.365-1.514-2.59c-25.94,11.469-51.881,22.939-77.821,34.408
			c-12.669,5.601-25.337,11.203-38.006,16.804c-9.606,4.247-26.752,15.236-36.567,6.304
			C1400.014,2064.829,1397.887,2066.944,1399.318,2068.247L1399.318,2068.247z"/>
	</g>
</g>
<g>
	<g>
		<path d="M884.932,2306.599c-24.285,10.298-41.656,40.111-23.248,63.748c7.246,9.304,18.955,13.815,30.389,10.143
			c10.641-3.418,19.148-12.676,19.196-24.168c0.008-1.931-2.992-1.933-3,0c-0.046,10.984-9.048,19.7-19.436,21.941
			c-11.438,2.467-21.974-4.002-27.51-13.86c-12.594-22.425,4.072-46.286,25.122-55.213
			C888.218,2308.438,886.691,2305.853,884.932,2306.599L884.932,2306.599z"/>
	</g>
</g>
<g>
	<g>
		<path d="M1134.521,1802.563c80.392,43.772,158.812,91.01,234.627,142.32c5.687,3.849,11.361,7.719,17.021,11.608
			c2.306,1.585,4.355,2.942,6.932,3.955c3.147,1.238,5.656,3.526,8.381,5.51c10.754,7.83,21.931,15.055,32.542,23.084
			c1.54,1.165,3.036-1.439,1.514-2.59c-9.336-7.064-19.102-13.513-28.645-20.287c-3.993-2.835-7.871-6.576-12.416-8.407
			c-5.665-2.282-10.676-6.528-15.726-9.971c-19.586-13.353-39.338-26.464-59.259-39.313
			c-37.915-24.453-76.454-47.932-115.535-70.474c-22.477-12.965-45.132-25.619-67.921-38.027
			C1134.339,1799.049,1132.823,1801.638,1134.521,1802.563L1134.521,1802.563z"/>
	</g>
</g>
<g>
	<g>
		<path d="M1341.886,2052.279c-4.336-4.196-7.347-9.396-11.324-13.886c-4.43-5.001-10.323-9.063-15.476-13.295
			c-9.384-7.707-19.533-14.081-30.724-18.841c-5.328-2.266-10.777-4.218-16.259-6.074c-3.313-1.122-6.639-2.205-9.955-3.317
			c-3.071-1.03-5.997-1.21-6.721-4.745c-0.903-4.41,1.222-9.301-0.844-13.568c-1.718-3.547-5.977-3.445-9.379-4.305
			c-25.098-6.345-50.194-13.264-73.907-23.799c-11.983-5.323-23.024-11.894-34.332-18.459c-2.92-1.695-6.287-2.891-8.903-5.051
			c-1.938-1.6-2.953-2.639-5.267-3.716c-5.385-2.508-10.906-6.45-15.341-10.468c-4.42-4.004-8.743-8.223-14.309-10.586
			c-6.893-2.927-14.027-5.403-21.036-8.046c-14.345-5.409-29.409-11.284-42.059-20.115c-1.587-1.108-3.088,1.492-1.514,2.59
			c10.317,7.202,22.439,12.451,34.096,17.08c6.358,2.525,12.794,4.848,19.182,7.294c6.741,2.581,13.058,4.782,18.625,9.492
			c3.855,3.262,7.306,6.751,11.509,9.57c2.265,1.52,4.202,3.444,6.593,4.741c0.487,0.264,1.33,0.521,1.687,0.67
			c2.891,1.203,4.323,2.876,6.713,4.614c4.311,3.135,9.743,5.314,14.35,8.118c5.739,3.492,11.628,6.735,17.635,9.74
			c21.788,10.901,45.005,18.454,68.474,24.795c6.229,1.683,12.478,3.287,18.734,4.863c2.574,0.648,5.281,0.73,6.165,3.71
			c0.809,2.729-0.343,5.819-0.184,8.6c0.145,2.555,0.547,5.903,2.488,7.56c2.148,1.833,7.384,2.525,10.088,3.424
			c3.302,1.098,6.609,2.185,9.896,3.328c14.325,4.984,27.838,11.422,39.763,20.898c5.308,4.218,10.872,8.452,15.833,13.065
			c5.188,4.824,8.483,11.302,13.583,16.239C1341.152,2055.744,1343.276,2053.625,1341.886,2052.279L1341.886,2052.279z"/>
	</g>
</g>
<g>
	<g>
		<path d="M1423.792,1982.154c14.973-3.59,27.769-12.741,36.076-25.693c1.045-1.63-1.55-3.136-2.59-1.514
			c-7.897,12.313-20.067,20.907-34.283,24.315C1421.118,1979.711,1421.913,1982.605,1423.792,1982.154L1423.792,1982.154z"/>
	</g>
</g>
<g>
	<g>
		<path d="M1335.071,2052.1c15.651-1.745,28.854-12.682,33.303-27.828c0.545-1.856-2.349-2.649-2.893-0.797
			c-4.042,13.76-16.119,24.032-30.411,25.625C1333.174,2049.311,1333.152,2052.313,1335.071,2052.1L1335.071,2052.1z"/>
	</g>
</g>
<g>
	<g>
		<path d="M1426.588,1926.674c-10.844,9.233-20.409,19.715-28.664,31.318c-1.121,1.576,1.479,3.076,2.59,1.514
			c8.109-11.396,17.548-21.645,28.195-30.711C1430.182,1927.542,1428.051,1925.429,1426.588,1926.674L1426.588,1926.674z"/>
	</g>
</g>
<g>
	<g>
		<path d="M1388.339,1907.427c-5.66,9.36-12.14,18.111-19.454,26.246c-1.288,1.432,0.827,3.561,2.121,2.121
			c7.483-8.323,14.132-17.276,19.923-26.854C1391.931,1907.285,1389.338,1905.775,1388.339,1907.427L1388.339,1907.427z"/>
	</g>
</g>
<g>
	<g>
		<path d="M1342.367,1877.611c-5.826,11.467-14.039,21.32-24.356,29.014c-1.53,1.141-0.036,3.746,1.514,2.59
			c10.742-8.01,19.36-18.137,25.432-30.09C1345.83,1877.408,1343.242,1875.888,1342.367,1877.611L1342.367,1877.611z"/>
	</g>
</g>
<g>
	<g>
		<path d="M1302.451,1853.6c-5.916,11.645-13.604,22.085-22.982,31.179c-1.389,1.347,0.734,3.467,2.121,2.121
			c9.552-9.263,17.424-19.922,23.451-31.787C1305.914,1853.397,1303.326,1851.877,1302.451,1853.6L1302.451,1853.6z"/>
	</g>
</g>
<g>
	<g>
		<path d="M1257.703,1831.242c-4.7,10.739-10.76,20.689-18.213,29.743c-1.218,1.479,0.893,3.614,2.121,2.121
			c7.617-9.253,13.875-19.367,18.682-30.35C1261.06,1831.005,1258.476,1829.476,1257.703,1831.242L1257.703,1831.242z"/>
	</g>
</g>
<g>
	<g>
		<path d="M1229.873,1810.309c-2.083,13.547-10.625,24.912-23.068,30.66c-1.751,0.809-0.229,3.395,1.514,2.59
			c13.064-6.035,22.259-18.227,24.446-32.452C1233.057,1809.218,1230.166,1808.404,1229.873,1810.309L1229.873,1810.309z"/>
	</g>
</g>
<g>
	<g>
		<path d="M1184.953,1782.699c-7.299,9.842-14.597,19.684-21.896,29.526c-1.151,1.552,1.452,3.049,2.59,1.514
			c7.299-9.842,14.598-19.684,21.896-29.526C1188.694,1782.661,1186.092,1781.164,1184.953,1782.699L1184.953,1782.699z"/>
	</g>
</g>
<g>
	<g>
		<path d="M1081.558,1721.534c-0.968,3.193-1.981,6.371-3.037,9.536c-0.613,1.835,2.283,2.623,2.893,0.798
			c1.057-3.165,2.069-6.343,3.037-9.536C1085.012,1720.48,1082.118,1719.689,1081.558,1721.534L1081.558,1721.534z"/>
	</g>
</g>
<g>
	<g>
		<path d="M1027.959,1702.351c0,0.901,0,1.802,0,2.703c0,0.811,0.689,1.5,1.5,1.5c0.813,0,1.5-0.687,1.5-1.5
			c0-0.901,0-1.802,0-2.703c0-0.811-0.689-1.5-1.5-1.5C1028.646,1700.851,1027.959,1701.538,1027.959,1702.351L1027.959,1702.351z"
			/>
	</g>
</g>
<g>
	<g>
		<path d="M1043.746,1742.298c2.45-10.379,4.899-20.758,7.349-31.137c0.443-1.877-2.449-2.679-2.893-0.797
			c-2.45,10.379-4.899,20.758-7.349,31.137C1040.41,1743.378,1043.302,1744.18,1043.746,1742.298L1043.746,1742.298z"/>
	</g>
</g>
<g>
	<g>
		<path d="M1077.808,1728.187c3.986,1.513,5.32-5.285,0.873-5.744c-4.915-0.508-9.595,4.841-12.336,8.176
			c-1.217,1.48,0.894,3.614,2.121,2.121c1.482-1.803,3.043-3.57,4.9-4.998c0.923-0.71,3.889-2.96,5.239-2.448
			C1076.799,1724.609,1076.017,1727.508,1077.808,1728.187L1077.808,1728.187z"/>
	</g>
</g>
<g>
	<g>
		<path d="M1036.713,1705.81c-5.537,10.306-12.359,19.702-20.438,28.165c-1.333,1.397,0.785,3.521,2.121,2.121
			c8.249-8.643,15.251-18.245,20.907-28.773C1040.217,1705.624,1037.628,1704.107,1036.713,1705.81L1036.713,1705.81z"/>
	</g>
</g>
<g>
	<g>
		<path d="M1028.151,1882.123c1.593-1.593,3.211-3.161,4.852-4.705c1.41-1.325-0.715-3.444-2.121-2.121
			c-1.641,1.543-3.259,3.111-4.852,4.705C1024.663,1881.369,1026.783,1883.491,1028.151,1882.123L1028.151,1882.123z"/>
	</g>
</g>
<g>
	<g>
		<path d="M1054.757,1895.909c3.028,1.372,5.809,1.005,8.75-0.527c5.188-2.703,9.905-6.738,14.685-10.099
			c9.815-6.901,19.63-13.801,29.444-20.702c1.567-1.102,0.07-3.704-1.514-2.59c-7.958,5.595-15.916,11.19-23.874,16.786
			c-3.714,2.611-7.427,5.222-11.141,7.833c-3.67,2.58-10.039,8.883-14.836,6.709
			C1054.526,1892.528,1052.999,1895.112,1054.757,1895.909L1054.757,1895.909z"/>
	</g>
</g>
<g>
	<g>
		<path d="M1084.945,1910.239c15.74-8.947,31.479-17.893,47.219-26.84c1.678-0.954,0.168-3.547-1.514-2.59
			c-15.74,8.947-31.479,17.893-47.219,26.84C1081.753,1908.603,1083.263,1911.195,1084.945,1910.239L1084.945,1910.239z"/>
	</g>
</g>
<g>
	<g>
		<path d="M1126.297,1931.935c12.894-10.13,26.527-19.224,40.807-27.282c1.681-0.949,0.171-3.542-1.514-2.59
			c-14.509,8.187-28.315,17.46-41.414,27.751C1122.659,1931.005,1124.795,1933.115,1126.297,1931.935L1126.297,1931.935z"/>
	</g>
</g>
<g>
	<g>
		<path d="M1160.871,1952.844c7.065-4.601,14.13-9.203,21.195-13.804c1.96-1.277,22.465-15.165,23.221-13.723
			c-0.897-1.711-3.487-0.196-2.59,1.514c0.099,0.19,0.199,0.38,0.299,0.57c0.247,0.472,0.782,0.728,1.295,0.743
			c2.024,0.059,3.909-1.949,3.189-3.985c-1.46-4.132-6.927-0.709-8.993,0.611c-13.115,8.379-26.088,16.991-39.129,25.485
			C1157.745,1951.304,1159.247,1953.902,1160.871,1952.844L1160.871,1952.844z"/>
	</g>
</g>
<g>
	<g>
		<path d="M1206.494,1964.135c10.259-6.06,19.933-12.959,29.022-20.661c1.475-1.25-0.656-3.363-2.121-2.121
			c-8.897,7.539-18.375,14.262-28.415,20.193C1203.318,1962.525,1204.826,1965.12,1206.494,1964.135L1206.494,1964.135z"/>
	</g>
</g>
<g>
	<g>
		<path d="M1232.183,1974.567c9.655-0.708,18.123-6.216,22.5-14.889c0.868-1.719-1.719-3.24-2.59-1.514
			c-3.884,7.696-11.276,12.77-19.91,13.403C1230.269,1971.708,1230.254,1974.709,1232.183,1974.567L1232.183,1974.567z"/>
	</g>
</g>
<g>
	<g>
		<path d="M1251.765,1991.521c12.38-3.009,23.518-9.123,32.73-17.92c1.399-1.336-0.724-3.455-2.121-2.121
			c-8.858,8.458-19.508,14.256-31.406,17.148C1249.092,1989.084,1249.886,1991.977,1251.765,1991.521L1251.765,1991.521z"/>
	</g>
</g>
<g>
	<g>
		<path d="M1284.703,2004.407c9.71-5.61,18.547-12.4,26.47-20.336c1.366-1.368-0.755-3.49-2.121-2.121
			c-7.746,7.759-16.37,14.382-25.863,19.866C1281.517,2002.783,1283.026,2005.376,1284.703,2004.407L1284.703,2004.407z"/>
	</g>
</g>
<g>
	<g>
		<path d="M1315.125,2026.095c8.691-6.717,17.383-13.435,26.074-20.152c1.525-1.179-0.612-3.288-2.121-2.121
			c-8.691,6.717-17.383,13.435-26.074,20.152C1311.478,2025.153,1313.615,2027.262,1315.125,2026.095L1315.125,2026.095z"/>
	</g>
</g>
<g>
	<g>
		<path d="M1489.232,2135.052c1.46-12.954-4.334-25.447-14.941-32.941c-0.429-0.303-1.08-0.252-1.514,0
			c-61.597,35.759-127.171,63.897-193.652,89.183c-66.305,25.219-133.592,47.757-199.906,72.951
			c-8.534,3.242-17.179,6.327-25.565,9.937c-6.038,2.599-12.572,6.208-15.298,12.557c-3.733,8.694,6.361,22.108,15.248,14.796
			c1.492-1.228-0.641-3.339-2.121-2.121c-3.63,2.986-8.07-0.343-9.917-3.694c-2.351-4.265-0.771-8.659,2.411-11.993
			c5.381-5.638,13.722-8,20.776-10.734c16.098-6.238,32.267-12.295,48.473-18.248c32.454-11.921,65.059-23.422,97.593-35.121
			c64.981-23.367,129.811-47.558,192.161-77.375c17.423-8.332,34.64-17.1,51.571-26.394c4.239-2.327,8.46-4.686,12.662-7.08
			c1.985-1.131,4.339-3.291,6.555-2.866c1.927,0.369,3.46,2.421,4.709,3.842c6.121,6.964,8.786,16.145,7.755,25.3
			C1486.016,2136.968,1489.018,2136.952,1489.232,2135.052L1489.232,2135.052z"/>
	</g>
</g>
<g>
	<g>
		<path d="M1029.709,2244.836c-5.277-1.243-11.27-2.497-15.179-6.561c-1.965-2.043-3.355-4.858-3.389-7.744
			c-0.049-4.167,2.969-6.365,6.326-8.051c11.468-5.761,23.149-11.133,34.716-16.693c22.725-10.924,45.451-21.848,68.176-32.772
			c46.049-22.135,92.098-44.271,138.146-66.406c26.314-12.649,52.627-25.297,78.941-37.946c-0.734-0.299-1.469-0.598-2.203-0.896
			c3.989,12.388,9.91,23.889,17.728,34.299c0.684-0.684,1.368-1.368,2.052-2.052c-3.416-1.68-5.265-4.641-5.174-8.466
			c0.046-1.931-2.954-1.93-3,0c-0.116,4.869,2.274,8.9,6.66,11.057c1.198,0.589,3.038-0.739,2.052-2.052
			c-7.663-10.203-13.512-21.432-17.425-33.583c-0.314-0.976-1.31-1.326-2.203-0.896c-100.769,48.439-201.538,96.878-302.308,145.317
			c-6.456,3.103-13.363,5.832-19.537,9.465c-3.611,2.125-5.988,5.359-5.946,9.676c0.108,11.165,11.818,15.09,20.77,17.198
			C1030.79,2248.171,1031.591,2245.279,1029.709,2244.836L1029.709,2244.836z"/>
	</g>
</g>
<g>
	<g>
		<path d="M1051.392,2204.73c5.875,5.232,11.75,10.465,17.624,15.697c2.854,2.542,7.862,9.185,12.314,8.849
			c6.288-0.475,0.821-9.06-1.864-4.72c-1.019,1.646,1.575,3.155,2.59,1.514c-1.03,1.665-13.879-10.401-15.325-11.688
			c-4.406-3.924-8.812-7.849-13.218-11.773C1052.075,2201.328,1049.946,2203.442,1051.392,2204.73L1051.392,2204.73z"/>
	</g>
</g>
<g>
	<g>
		<path d="M1099.152,2180.968c8.15,11.092,18.068,20.491,29.604,28c1.623,1.056,3.128-1.54,1.514-2.591
			c-11.09-7.218-20.692-16.259-28.528-26.923C1100.611,2177.915,1098.006,2179.409,1099.152,2180.968L1099.152,2180.968z"/>
	</g>
</g>
<g>
	<g>
		<path d="M1146.78,2170.857c4.356,7.296,8.711,14.592,13.067,21.888c0.989,1.656,3.583,0.149,2.59-1.514
			c-4.356-7.296-8.711-14.592-13.067-21.888C1148.382,2167.687,1145.787,2169.194,1146.78,2170.857L1146.78,2170.857z"/>
	</g>
</g>
<g>
	<g>
		<path d="M1144.919,2165.809c2.703,1.802,5.405,3.604,8.108,5.405c1.611,1.074,3.115-1.523,1.514-2.59
			c-2.703-1.802-5.405-3.604-8.108-5.406C1144.822,2162.144,1143.318,2164.742,1144.919,2165.809L1144.919,2165.809z"/>
	</g>
</g>
<g>
	<g>
		<path d="M1185.848,2145.787c2.078,6.479,3.878,13.138,6.259,19.511c0.804,2.153,2.328,5.497,5.237,5.06
			c3.96-0.596,2.609-7.562-1.21-5.559c-1.71,0.897-0.196,3.488,1.514,2.591c-2.171,1.139-4.897-9.9-5.209-10.871
			c-1.233-3.843-2.466-7.686-3.698-11.529C1188.154,2143.158,1185.256,2143.941,1185.848,2145.787L1185.848,2145.787z"/>
	</g>
</g>
<g>
	<g>
		<path d="M1212.962,2129.646c4.545,9.424,9.089,18.848,13.634,28.272c0.838,1.739,3.426,0.219,2.59-1.514
			c-4.545-9.424-9.089-18.848-13.634-28.272C1214.714,2126.394,1212.126,2127.914,1212.962,2129.646L1212.962,2129.646z"/>
	</g>
</g>
<g>
	<g>
		<path d="M1245.347,2116.569c8.507,6.355,15.052,14.759,19.118,24.571c0.729,1.758,3.632,0.987,2.893-0.798
			c-4.398-10.615-11.289-19.486-20.496-26.364C1245.314,2112.823,1243.817,2115.426,1245.347,2116.569L1245.347,2116.569z"/>
	</g>
</g>
<g>
	<g>
		<path d="M1283.784,2094.227c1.095,5.545,2.189,11.089,3.284,16.634c0.767,3.883,0.796,10.243,3.179,13.559
			c2.362,3.287,7.666,0.459,5.15-2.8c-1.163-1.507-3.77-0.015-2.59,1.514c-1.122-1.454-1.159-4.531-1.493-6.222
			c-0.515-2.609-1.03-5.218-1.546-7.827c-1.03-5.219-2.061-10.437-3.091-15.655
			C1286.303,2091.537,1283.411,2092.338,1283.784,2094.227L1283.784,2094.227z"/>
	</g>
</g>
<g>
	<g>
		<path d="M1307.35,2086.31c5.815,8.291,9.687,17.475,11.562,27.425c0.357,1.895,3.249,1.093,2.893-0.797
			c-1.923-10.198-5.906-19.645-11.865-28.142C1308.841,2083.227,1306.238,2084.725,1307.35,2086.31L1307.35,2086.31z"/>
	</g>
</g>
<g>
	<g>
		<path d="M1441.884,2125.064c6.73,6.51,11.13,14.493,13.077,23.648c0.401,1.887,3.294,1.089,2.893-0.798
			c-2.046-9.623-6.779-18.133-13.848-24.971C1442.617,2121.6,1440.493,2123.719,1441.884,2125.064L1441.884,2125.064z"/>
	</g>
</g>
<g>
	<g>
		<path d="M1409.901,2140.397c2.396,10.631,2.906,21.381,1.599,32.192c-0.231,1.912,2.771,1.896,3,0
			c1.34-11.082,0.747-22.106-1.706-32.99C1412.369,2137.717,1409.476,2138.514,1409.901,2140.397L1409.901,2140.397z"/>
	</g>
</g>
<g>
	<g>
		<path d="M1377.338,2153.886c3.414,10.484,7.922,20.484,13.533,29.977c0.982,1.661,3.576,0.153,2.59-1.514
			c-5.479-9.27-9.895-19.021-13.23-29.26C1379.635,2151.261,1376.738,2152.043,1377.338,2153.886L1377.338,2153.886z"/>
	</g>
</g>
<g>
	<g>
		<path d="M1339.067,2168.229c2.348,4.693,4.696,9.386,7.044,14.079c1.061,2.12,8.362,13.517,6.754,15.516
			c1.199-1.491-0.911-3.626-2.121-2.121c-2.926,3.638,4.129,6.82,5.136,1.897c0.797-3.897-3.388-9.228-4.978-12.406
			c-3.082-6.16-6.163-12.32-9.245-18.479C1340.794,2164.988,1338.205,2166.506,1339.067,2168.229L1339.067,2168.229z"/>
	</g>
</g>
<g>
	<g>
		<path d="M1303.641,2186.983c3.68,8.073,7.36,16.146,11.041,24.219c0.8,1.754,3.386,0.231,2.59-1.514
			c-3.68-8.073-7.36-16.146-11.041-24.219C1305.432,2183.714,1302.845,2185.237,1303.641,2186.983L1303.641,2186.983z"/>
	</g>
</g>
<g>
	<g>
		<path d="M1268.064,2194.294c1.353,10.582,4.52,20.584,9.569,29.983c0.914,1.701,3.505,0.188,2.59-1.514
			c-4.787-8.91-7.877-18.435-9.159-28.469C1270.823,2192.405,1267.82,2192.381,1268.064,2194.294L1268.064,2194.294z"/>
	</g>
</g>
<g>
	<g>
		<path d="M1233.57,2216.622c0.433,0.701,0.8,1.083,1.651,1.161c0.747,0.068,1.584-0.745,1.5-1.5c-0.249-2.23-1.55-4.31-3.099-5.874
			c-1.264-1.277-3.04,0.334-2.356,1.818c3.736,8.104,8.134,15.91,13.114,23.314c1.072,1.594,3.672,0.094,2.59-1.514
			c-4.98-7.405-9.378-15.21-13.114-23.314c-0.785,0.606-1.571,1.212-2.356,1.818c0.909,0.918,2.069,2.397,2.22,3.753
			c0.5-0.5,1-1,1.5-1.5c0.313,0.108,0.626,0.217,0.939,0.325C1235.148,2213.468,1232.552,2214.973,1233.57,2216.622
			L1233.57,2216.622z"/>
	</g>
</g>
<g>
	<g>
		<path d="M1198.631,2222.361c4.913,6.253,8.53,13.21,10.889,20.802c0.571,1.838,3.468,1.053,2.893-0.797
			c-2.517-8.102-6.42-15.458-11.66-22.126C1199.561,2218.723,1197.451,2220.859,1198.631,2222.361L1198.631,2222.361z"/>
	</g>
</g>
<g>
	<g>
		<path d="M1155.692,2235.152c5.63,7.412,9.895,15.524,12.747,24.39c0.589,1.831,3.487,1.048,2.893-0.798
			c-2.928-9.101-7.264-17.49-13.05-25.107C1157.13,2232.12,1154.523,2233.613,1155.692,2235.152L1155.692,2235.152z"/>
	</g>
</g>
<g>
	<g>
		<path d="M1122.797,2254.431c5.267,7.245,9.161,15.091,11.7,23.689c0.546,1.847,3.442,1.061,2.893-0.798
			c-2.603-8.813-6.597-16.971-12.002-24.406C1124.263,2251.37,1121.659,2252.866,1122.797,2254.431L1122.797,2254.431z"/>
	</g>
</g>
<g>
	<g>
		<path d="M1091.341,2261.804c2.907,8.351,5.813,16.701,8.72,25.052c0.631,1.812,3.53,1.033,2.893-0.797
			c-2.907-8.351-5.813-16.701-8.72-25.052C1093.603,2259.194,1090.704,2259.974,1091.341,2261.804L1091.341,2261.804z"/>
	</g>
</g>
<g>
	<g>
		<path d="M1040.151,2308.869c-1.285-9.704-2.194-19.548-3.879-29.19c-0.862-4.935-2.916-10.356-8.576-10.76
			c-0.683-0.049-1.241,0.506-1.446,1.101c-5.369,15.604-7.621,31.917-6.682,48.391c0.109,1.919,3.11,1.932,3,0
			c-0.924-16.222,1.288-32.23,6.575-47.594c-0.482,0.367-0.964,0.734-1.446,1.101c6.459,0.461,6.272,12.903,6.841,17.203
			c0.871,6.582,1.743,13.164,2.614,19.746C1037.4,2310.755,1040.404,2310.78,1040.151,2308.869L1040.151,2308.869z"/>
	</g>
</g>
<g>
	<g>
		<path d="M1012.153,2313.73c-7.811-8.72-17.038-15.801-27.484-21.087c-0.772-0.391-2.042-0.123-2.203,0.896
			c-2.332,14.746-2.341,29.54-0.028,44.288c0.298,1.902,3.189,1.094,2.893-0.798c-2.224-14.182-2.214-28.514,0.028-42.693
			c-0.734,0.299-1.469,0.598-2.203,0.896c10.229,5.176,19.228,12.078,26.877,20.618
			C1011.322,2317.293,1013.438,2315.166,1012.153,2313.73L1012.153,2313.73z"/>
	</g>
</g>
<g>
	<g>
		<path d="M963.849,2338.715c2.127,1.162,4.254,2.324,6.38,3.485c1.286,0.702,2.85-0.732,2.052-2.052
			c-6.297-10.424-11.9-21.212-16.807-32.357c-0.498-1.132-2.556-0.883-2.742,0.358c-2.299,15.396-6.017,30.479-11.137,45.179
			c-0.636,1.827,2.261,2.612,2.893,0.798c5.12-14.7,8.839-29.784,11.137-45.179c-0.914,0.12-1.828,0.239-2.742,0.358
			c4.908,11.146,10.511,21.933,16.807,32.357c0.684-0.684,1.368-1.368,2.052-2.052c-2.127-1.162-4.254-2.323-6.38-3.485
			C963.668,2335.199,962.152,2337.788,963.849,2338.715L963.849,2338.715z"/>
	</g>
</g>
<g>
	<g>
		<path d="M940.069,2347.114c-6.315,4.433-8.756-5.65-8.71-9.952c0.035-3.212,0.451-6.482-0.464-9.621
			c-1.245-4.273-4.273-7.674-8.887-7.8c-0.475-0.013-1.097,0.284-1.295,0.743c-4.936,11.425-7.079,23.488-6.223,35.914
			c0.132,1.916,3.133,1.93,3,0c-0.53-7.693-0.01-15.349,1.859-22.847c0.535-2.146,1.965-10.604,5.219-10.221
			c3.922,0.462,3.942,9.052,3.883,11.292c-0.13,4.905-0.477,10.203,3.409,13.837c2.754,2.575,6.521,3.494,9.723,1.246
			C943.151,2348.603,941.654,2346.001,940.069,2347.114L940.069,2347.114z"/>
	</g>
</g>
<g>
	<g>
		<path d="M900.181,2367.337c-7.775,3.554-6.743-13.254-7.194-16.433c-0.526-3.711-1.89-6.893-5.462-8.457
			c-0.98-0.429-2.294,0.051-2.257,1.295c0.346,11.611-0.527,23.128-2.665,34.548c-0.353,1.887,2.538,2.696,2.893,0.798
			c2.186-11.681,3.126-23.465,2.772-35.346c-0.752,0.432-1.505,0.864-2.257,1.295c6.799,2.977,3.033,13.482,5.348,19.191
			c1.797,4.431,5.52,7.9,10.336,5.698C903.449,2369.126,901.926,2366.54,900.181,2367.337L900.181,2367.337z"/>
	</g>
</g>
<g>
	<g>
		<path d="M866.603,2368.122c11.727-6.756,17.745-20.358,15.007-33.584c-0.391-1.889-3.284-1.09-2.893,0.797
			c2.466,11.911-3.113,24.139-13.629,30.197C863.416,2366.495,864.925,2369.088,866.603,2368.122L866.603,2368.122z"/>
	</g>
</g>
<g>
	<g>
		<path d="M880.558,2337.163c-8.34,1.245-15.807,4.829-22.084,10.446c-1.442,1.29,0.686,3.406,2.121,2.121
			c5.92-5.297,12.913-8.503,20.76-9.674C883.259,2339.772,882.45,2336.881,880.558,2337.163L880.558,2337.163z"/>
	</g>
</g>
<g>
	<g>
		<path d="M858.466,2336.566c3.666-17.058,7.052-34.172,10.158-51.341c-0.964,0-1.929,0-2.893,0
			c1.17,2.854,13.969,33.386,12.722,33.744c1.853-0.531,1.065-3.427-0.797-2.893c-0.186,0.053-0.372,0.107-0.559,0.16
			c-0.488,0.14-0.93,0.54-1.048,1.048c-1.018,4.398,5.384,5.182,5.601,0.11c0.186-4.354-3.775-10.399-5.403-14.371
			c-2.541-6.198-5.082-12.396-7.623-18.595c-0.492-1.2-2.597-1.633-2.893,0c-3.106,17.169-6.492,34.283-10.158,51.341
			C855.168,2337.651,858.06,2338.456,858.466,2336.566L858.466,2336.566z"/>
	</g>
</g>
<g>
	<g>
		<path d="M861.892,2344.392c0.901,0,1.802,0,2.703,0c0.811,0,1.5-0.689,1.5-1.5c0-0.813-0.686-1.5-1.5-1.5
			c-0.901,0-1.802,0-2.703,0c-0.811,0-1.5,0.689-1.5,1.5C860.392,2343.705,861.078,2344.392,861.892,2344.392L861.892,2344.392z"/>
	</g>
</g>
<g>
	<g>
		<path d="M861.892,2344.392c1.93,0,1.934-3,0-3C859.962,2341.392,859.958,2344.392,861.892,2344.392L861.892,2344.392z"/>
	</g>
</g>
<g>
	<g>
		<path d="M871.325,2338.116c-13.484-10.406-12.222-33.614,2.065-42.692c1.625-1.033,0.122-3.63-1.514-2.591
			c-16.357,10.394-17.325,36.097-2.065,47.873C871.339,2341.885,872.834,2339.28,871.325,2338.116L871.325,2338.116z"/>
	</g>
</g>
<g>
	<g>
		<path d="M888.417,2301.354c-2.655,3.41-5.9-9.576-6.248-11.231c-0.889-4.231-1.413-8.525-1.581-12.845
			c-0.33-8.521,0.798-16.927,3.149-25.113c-0.964,0-1.929,0-2.893,0c4.553,18,14.04,34.226,27.495,47.021
			c1.399,1.33,3.524-0.788,2.121-2.121c-13.108-12.464-22.288-28.161-26.724-45.697c-0.369-1.458-2.492-1.396-2.893,0
			c-3.454,12.027-4.24,24.587-2.071,36.929c0.805,4.581,1.521,10.996,4.902,14.5c1.96,2.031,4.878,3.228,6.862,0.679
			C891.711,2301.97,889.602,2299.832,888.417,2301.354L888.417,2301.354z"/>
	</g>
</g>
<g>
	<g>
		<path d="M914.073,2287.889c0.186-0.029,0.372-0.059,0.558-0.088c-0.565-0.23-1.129-0.459-1.694-0.689
			c-1.876-2.83-3.23-7.34-3.859-10.734c-0.637-3.437-0.6-7.009,0.029-10.441c1.215-6.632,4.613-12.42,9.811-16.695
			c-0.854-0.354-1.707-0.707-2.561-1.061c-0.36,9.044-0.712,18.972,4.094,27.043c3.682,6.184,9.824,10.501,17.146,10.463
			c1.93-0.01,1.934-3.01,0-3c-17.784,0.093-18.749-21.71-18.24-34.507c0.056-1.411-1.627-1.829-2.561-1.061
			c-8.57,7.048-12.572,18.491-10.719,29.4c0.627,3.691,2.38,11.133,6.291,12.859c2.666,1.176,4.72-1.429,3.159-3.783
			c-0.406-0.612-0.996-0.8-1.694-0.689c-0.186,0.029-0.372,0.059-0.558,0.088C911.374,2285.296,912.182,2288.188,914.073,2287.889
			L914.073,2287.889z"/>
	</g>
</g>
<g>
	<g>
		<path d="M944.764,2277.996c-1.237-14.161-0.707-28.306,1.662-42.325c-0.982-0.133-1.964-0.266-2.946-0.399
			c0.865,14.556,4.051,34.82,20.748,38.996c1.873,0.469,2.672-2.424,0.797-2.893c-15.198-3.801-17.766-22.979-18.546-36.103
			c-0.094-1.582-2.648-2.162-2.946-0.399c-2.414,14.287-3.03,28.685-1.769,43.123
			C941.93,2279.905,944.932,2279.922,944.764,2277.996L944.764,2277.996z"/>
	</g>
</g>
<g>
	<g>
		<path d="M977.295,2272.776c-2.682-16.605-0.919-33.373,5.001-49.106c-0.982-0.133-1.964-0.266-2.946-0.399
			c0.588,15.315,9.851,29.168,23.916,35.352c1.751,0.77,3.279-1.814,1.514-2.59c-13.099-5.76-21.879-18.426-22.43-32.762
			c-0.067-1.751-2.359-1.959-2.946-0.399c-6.122,16.273-7.771,33.547-5.001,50.701
			C974.709,2275.475,977.601,2274.668,977.295,2272.776L977.295,2272.776z"/>
	</g>
</g>
<g>
	<g>
		<path d="M845.134,1711.21c-1.53-5.325,7.799-8.524,7.632-2.366c-0.052,1.931,2.948,1.93,3,0c0.123-4.508-3.381-7.291-7.759-6.187
			c-4.2,1.059-6.991,5.084-5.766,9.351C842.773,1713.86,845.669,1713.072,845.134,1711.21L845.134,1711.21z"/>
	</g>
</g>
<g>
	<g>
		<path d="M919.672,1751.372c11.679,7.445,23.337,14.923,35.039,22.333c11.114,7.038,22.495,13.655,33.086,21.484
			c1.554,1.149,3.052-1.454,1.514-2.59c-10.59-7.828-21.971-14.448-33.086-21.484c-11.702-7.408-23.36-14.888-35.039-22.333
			C919.553,1747.741,918.047,1750.336,919.672,1751.372L919.672,1751.372z"/>
	</g>
</g>
<g>
	<g>
		<path d="M881.983,1727.35c9.422,6.005,18.844,12.011,28.266,18.016c1.633,1.041,3.139-1.555,1.514-2.59
			c-9.422-6.006-18.844-12.011-28.266-18.017C881.865,1723.719,880.358,1726.314,881.983,1727.35L881.983,1727.35z"/>
	</g>
</g>
<g>
	<g>
		<path d="M853.128,1708.958c2.944,1.877,5.889,3.754,8.833,5.63c1.633,1.041,3.139-1.555,1.514-2.59
			c-2.944-1.877-5.889-3.753-8.833-5.63C853.009,1705.327,851.503,1707.922,853.128,1708.958L853.128,1708.958z"/>
	</g>
</g>
<g>
	<g>
		<path d="M859.349,1710.478c-3.767-3.59-6.023-8.18-6.436-13.381c-0.5,0.5-1,1-1.5,1.5c2.31-0.007,4.621-0.015,6.932-0.022
			c1.93-0.006,1.934-3.006,0-3c-2.31,0.007-4.621,0.015-6.932,0.022c-0.763,0.002-1.565,0.687-1.5,1.5
			c0.475,5.978,2.965,11.356,7.315,15.503C858.625,1713.931,860.75,1711.813,859.349,1710.478L859.349,1710.478z"/>
	</g>
</g>
<g>
	<g>
		<path d="M963.534,1779.088c0.901,0.901,1.802,1.802,2.703,2.703c1.367,1.367,3.489-0.754,2.121-2.121
			c-0.901-0.901-1.802-1.802-2.703-2.703C964.288,1775.599,962.166,1777.72,963.534,1779.088L963.534,1779.088z"/>
	</g>
</g>
<g>
	<g>
		<path d="M915.825,1744.398c-33.279,13.882-63.751,35.508-92.008,57.631c-28.669,22.446-53.478,50.31-75.074,79.531
			c-43.616,59.017-74.08,126.754-89.579,198.469c-8.901,41.185-12.879,83.343-12.102,125.463c0.025,1.369,2.167,2.197,2.795,0.757
			c2.037-4.67,4.542-9.137,5.431-14.206c0.296-1.689-1.734-2.571-2.742-1.156c-3.041,4.272-4.957,9.392-5.484,14.605
			c-0.185,1.832,2.365,1.818,2.946,0.399c11.607-28.329,24.799-55.982,39.471-82.853c6.993-12.808,14.309-25.439,21.899-37.902
			c3.864-6.345,7.799-12.646,11.798-18.906c4.04-6.325,9.042-11.774,13.093-18.033c32.248-49.833,71.478-93.659,114.436-134.484
			c24.769-23.539,50.769-45.774,78.638-65.578c1.561-1.109,0.064-3.712-1.514-2.59c-49.027,34.841-93.733,76.909-133.694,121.779
			c-19.515,21.912-37.865,44.887-54.04,69.389c-2.009,3.043-3.985,6.108-5.927,9.195c-2.133,3.389-4.73,5.989-7.228,9.033
			c-4.534,5.526-8.043,12.385-11.832,18.445c-8.262,13.213-16.229,26.613-23.837,40.213c-16.55,29.584-31.303,60.128-44.155,91.495
			c0.982,0.133,1.964,0.266,2.946,0.399c0.475-4.689,2.353-9.266,5.075-13.091c-0.914-0.385-1.828-0.771-2.742-1.156
			c-0.844,4.815-3.193,9.053-5.128,13.49c0.932,0.252,1.863,0.505,2.795,0.757c-1.361-73.757,12.146-147.572,40.418-215.761
			c27.111-65.389,69.082-126.713,121.612-174.265c15.813-14.314,33.666-26.572,51.415-38.325
			c16.98-11.244,34.27-21.988,53.117-29.85C918.378,1746.558,917.608,1743.654,915.825,1744.398L915.825,1744.398z"/>
	</g>
</g>
<g>
	<g>
		<path d="M1174.139,1769.67c1.944-1.536,3.887-3.073,5.831-4.609c1.514-1.196-0.622-3.306-2.121-2.121
			c-1.944,1.536-3.888,3.072-5.831,4.609C1170.504,1768.745,1172.64,1770.855,1174.139,1769.67L1174.139,1769.67z"/>
	</g>
</g>
<g>
	<g>
		<path d="M1076.501,1847.87c18.65-15.148,38.075-29.313,56.632-44.578c1.492-1.227-0.641-3.339-2.121-2.121
			c-18.557,15.265-37.982,29.43-56.632,44.578C1072.881,1846.966,1075.015,1849.077,1076.501,1847.87L1076.501,1847.87z"/>
	</g>
</g>
<g>
	<g>
		<path d="M923.587,1842.539c-20.277,19.965-36.28,43.505-53.883,65.704c-17.177,21.663-32.019,45.705-45.567,69.76
			c-6.704,11.904-13.027,24.021-19.002,36.306c-2.889,5.941-5.684,11.926-8.431,17.933c-2.744,6.002-3.801,12.329-5.67,18.609
			c-1.917,6.44-5.007,12.643-7.491,18.894c-2.478,6.236-4.882,12.502-7.19,18.803c-4.825,13.173-9.225,26.503-13.053,40.001
			c-8.19,28.879-17.499,61.236-8.161,90.924c0.323,1.027,1.716,1.53,2.507,0.662c4.088-4.488-3.917-6.175-2.507-0.662
			c0.341,1.335,2.036,1.366,2.742,0.358c3.466-4.948,7.494-9.462,10.792-14.53c1.004-1.543-1.118-2.795-2.356-1.818
			c-0.358,0.283-0.717,0.566-1.075,0.849c-1.515,1.195,0.621,3.305,2.121,2.121c0.358-0.283,0.717-0.566,1.075-0.849
			c1.333-1.052-0.406-3.293-1.818-2.356c-3.154,2.095-5.114,5.063-7.459,7.97c-1.9,2.355-3.561,4.38-4.023,7.457
			c-0.19,1.267,1.464,2.795,2.507,1.459c18.091-23.165,35.305-46.724,51.852-71.004c8.46-12.415,17.15-24.668,25.555-37.126
			c7.799-11.56,14.265-23.875,21.839-35.567c15.209-23.48,33.359-44.794,51.356-66.145c4.17-4.948,8.333-9.902,12.451-14.894
			c4.937-5.985,9.451-12.655,15.091-17.981c10.375-9.798,20.12-20.085,30.287-30.097c23.094-22.74,48.13-43.396,71.25-66.11
			c1.379-1.355-0.742-3.476-2.121-2.121c-20.492,20.132-42.479,38.647-63.3,58.428c-10.759,10.221-20.472,21.592-31.419,31.573
			c-5.073,4.625-9.721,9.124-14.022,14.493c-4.449,5.555-8.98,11.043-13.545,16.503c-17.289,20.68-35.088,40.992-50.638,63.047
			c-8.37,11.871-15.237,24.478-22.908,36.771c-7.484,11.993-15.595,23.73-23.667,35.335c-9.212,13.244-18.016,26.844-27.528,39.874
			c-10.59,14.506-21.597,28.744-32.652,42.899c0.836,0.487,1.671,0.973,2.507,1.459c0.665-4.438,6.489-11.233,10.103-13.634
			c-0.606-0.785-1.212-1.571-1.818-2.356c-0.358,0.283-0.717,0.566-1.075,0.849c-1.515,1.195,0.621,3.305,2.121,2.121
			c0.358-0.283,0.717-0.566,1.075-0.849c-0.785-0.606-1.571-1.212-2.356-1.818c-3.297,5.066-7.327,9.584-10.792,14.53
			c0.914,0.119,1.828,0.239,2.742,0.358c-0.836-0.22-1.671-0.441-2.507-0.662c0.836,0.221,1.671,0.441,2.507,0.662
			c-8.581-27.282-0.756-56.373,6.433-83.072c7.081-26.296,16.435-51.899,26.834-77.049c2.328-5.63,3.578-11.364,5.223-17.21
			c2.02-7.176,5.664-13.962,8.868-20.674c5.637-11.809,11.586-23.469,17.883-34.939c12.723-23.18,26.885-45.556,42.39-66.975
			c9.164-12.66,18.842-25.039,28.284-37.502c9.667-12.759,20.35-25.36,31.763-36.597
			C927.087,1843.303,924.965,1841.182,923.587,1842.539L923.587,1842.539z"/>
	</g>
</g>
<g>
	<g>
		<path d="M1035.807,1745.175c-28.295,19.868-55.054,41.813-80.119,65.626c-1.403,1.332,0.721,3.451,2.121,2.121
			c24.881-23.638,51.423-45.435,79.512-65.157C1038.89,1746.664,1037.392,1744.062,1035.807,1745.175L1035.807,1745.175z"/>
	</g>
</g>
<g>
	<g>
		<path d="M1077.596,1718.177c-10.844,6.465-21.504,13.22-31.983,20.261c-1.594,1.071-0.094,3.671,1.514,2.59
			c10.479-7.041,21.139-13.796,31.983-20.261C1080.767,1719.78,1079.26,1717.185,1077.596,1718.177L1077.596,1718.177z"/>
	</g>
</g>
<g>
	<g>
		<path d="M851.621,1710.264c11-12.682,25.276-17.931,41.241-21.526c16.509-3.717,33.156-7.5,50.098-8.48
			c30.876-1.786,61.701,6.386,87.841,22.84c1.639,1.031,3.146-1.563,1.514-2.59c-27.097-17.056-59.272-25.38-91.253-23.127
			c-17.143,1.208-34.02,5.038-50.734,8.856c-15.845,3.62-29.958,9.374-40.827,21.906
			C848.24,1709.594,850.353,1711.725,851.621,1710.264L851.621,1710.264z"/>
	</g>
</g>
<g>
	<g>
		<path d="M847.323,1703.673c9.421,9.211,19.874,17.147,31.283,23.74c1.675,0.968,3.187-1.624,1.514-2.59
			c-11.191-6.467-21.434-14.234-30.676-23.271C848.063,1700.201,845.94,1702.32,847.323,1703.673L847.323,1703.673z"/>
	</g>
</g>
<g>
	<g>
		<path d="M1166.5,1785c0,0.367,0,0.734,0,1.101c0,1.93,3,1.933,3,0c0-0.367,0-0.734,0-1.101
			C1169.5,1783.07,1166.5,1783.066,1166.5,1785c0,0.367,0,0.734,0,1.101c0,1.93,3,1.933,3,0c0-0.367,0-0.734,0-1.101
			C1169.5,1783.07,1166.5,1783.066,1166.5,1785L1166.5,1785z"/>
	</g>
</g>
<g>
	<g>
		<path d="M1172.807,1769.742c2.457-2.151-0.522-4.364-2.877-4.439c-2.653-0.084-4.81,2.087-6.812,3.531
			c-2.627,1.895-5.196,3.873-7.704,5.923c-11.738,9.593-21.925,20.879-30.498,33.367c-0.767,1.117,0.498,2.518,1.694,2.203
			c1.958-0.515,3.916-1.031,5.875-1.546c1.865-0.491,1.074-3.385-0.797-2.893c-1.958,0.515-3.916,1.031-5.875,1.546
			c0.565,0.734,1.129,1.469,1.694,2.203c5.539-8.069,11.756-15.621,18.694-22.529c3.208-3.194,6.553-6.247,10.027-9.15
			c2.073-1.732,4.193-3.406,6.354-5.027c2.472-1.853,5.867-3.352,8.105-5.312C1169.231,1768.895,1171.36,1771.01,1172.807,1769.742
			L1172.807,1769.742z"/>
	</g>
</g>
<g>
	<g>
		<path d="M1076.085,1841.001c-18.322,11.993-35.089,26.11-50.004,42.145c-1.314,1.412,0.803,3.539,2.121,2.121
			c14.745-15.852,31.282-29.819,49.397-41.676C1079.208,1842.538,1077.707,1839.94,1076.085,1841.001L1076.085,1841.001z"/>
	</g>
</g>
<g>
	<g>
		<path d="M917.439,1847.86c13.384-18.478,30.867-33.46,51.119-43.955c1.715-0.889,0.199-3.478-1.514-2.59
			c-20.726,10.741-38.505,26.131-52.195,45.032C913.714,1847.911,916.316,1849.41,917.439,1847.86L917.439,1847.86z"/>
	</g>
</g>
<g>
	<g>
		<path d="M1029.41,1749.839c8.54-3.644,16.879-7.677,25.038-12.109c1.697-0.922,0.184-3.513-1.514-2.59
			c-8.159,4.432-16.498,8.465-25.038,12.109C1026.125,1748.004,1027.652,1750.589,1029.41,1749.839L1029.41,1749.839z"/>
	</g>
</g>
<g>
	<g>
		<path d="M1137.796,1747.428c11.08,7.064,22.159,14.129,33.239,21.194c1.633,1.041,3.139-1.554,1.514-2.59
			c-11.08-7.065-22.159-14.129-33.239-21.194C1137.677,1743.797,1136.171,1746.392,1137.796,1747.428L1137.796,1747.428z"/>
	</g>
</g>
<g>
	<g>
		<path d="M1018.352,1733.098c-1.028-12.026-2.056-24.052-3.085-36.078c-0.163-1.909-3.165-1.927-3,0
			c1.028,12.026,2.056,24.052,3.085,36.078C1015.515,1735.007,1018.517,1735.025,1018.352,1733.098L1018.352,1733.098z"/>
	</g>
</g>
<g>
	<g>
		<path d="M990.289,1688.811c-6.65,15.661-15.56,30.12-26.623,43.051c0.854,0.354,1.707,0.707,2.561,1.061
			c-1.828-16.613-3.657-33.226-5.485-49.839c-0.209-1.898-3.211-1.919-3,0c1.828,16.613,3.657,33.226,5.485,49.839
			c0.127,1.154,1.627,2.152,2.561,1.061c11.23-13.126,20.339-27.754,27.092-43.658
			C993.625,1688.569,991.042,1687.038,990.289,1688.811L990.289,1688.811z"/>
	</g>
</g>
<g>
	<g>
		<path d="M950.053,1676.446c-6.947,19.473-13.894,38.947-20.841,58.42c0.964,0,1.929,0,2.893,0
			c-5.23-17.156-7.504-34.887-6.778-52.808c0.078-1.931-2.922-1.927-3,0c-0.737,18.177,1.58,36.204,6.885,53.606
			c0.449,1.473,2.403,1.373,2.893,0c6.947-19.473,13.894-38.947,20.841-58.42C953.596,1675.422,950.699,1674.638,950.053,1676.446
			L950.053,1676.446z"/>
	</g>
</g>
<g>
	<g>
		<path d="M903.106,1686.828c-4.873,15.385-9.745,30.77-14.618,46.154c0.964,0,1.929,0,2.893,0
			c-2.295-13.403-4.591-26.806-6.886-40.208c-0.325-1.899-3.217-1.094-2.893,0.798c2.295,13.403,4.591,26.806,6.886,40.208
			c0.266,1.551,2.482,1.297,2.893,0c4.873-15.385,9.745-30.77,14.618-46.154C906.583,1685.78,903.688,1684.991,903.106,1686.828
			L903.106,1686.828z"/>
	</g>
</g>
<g>
	<g>
		<path d="M862.5,1715c0,0.667,0,1.333,0,2c0,0.785,0.69,1.536,1.5,1.5c0.813-0.036,1.5-0.659,1.5-1.5c0-0.667,0-1.333,0-2
			c0-0.785-0.69-1.536-1.5-1.5C863.187,1713.536,862.5,1714.159,862.5,1715L862.5,1715z"/>
	</g>
</g>
<g>
	<g>
		<path d="M858.884,1699.023c-0.9,15.171-1.8,30.342-2.701,45.513c-0.105,1.774,2.413,1.917,2.946,0.399
			c6.698-19.08,15.84-37.111,27.227-53.819c1.09-1.599-1.508-3.102-2.59-1.514c-11.533,16.923-20.746,35.214-27.529,54.536
			c0.982,0.133,1.964,0.266,2.946,0.399c0.9-15.171,1.8-30.342,2.701-45.513C861.998,1697.095,858.998,1697.102,858.884,1699.023
			L858.884,1699.023z"/>
	</g>
</g>
<g>
	<g>
		<path d="M873.5,1731.001c0.114-4.746,0.228-9.492,0.342-14.239c0.039-1.646-2.681-2.1-2.946-0.399
			c-2.349,15.04-4.697,30.079-7.046,45.119c-0.201,1.284,1.453,2.771,2.507,1.459c9.966-12.403,21.521-23.297,34.535-32.457
			c1.567-1.103,0.069-3.705-1.514-2.59c-13.224,9.308-25.011,20.318-35.142,32.926c0.836,0.486,1.671,0.973,2.507,1.459
			c2.349-15.04,4.697-30.079,7.046-45.119c-0.982-0.133-1.964-0.266-2.946-0.399c-0.114,4.746-0.228,9.492-0.342,14.239
			C870.454,1732.933,873.454,1732.932,873.5,1731.001L873.5,1731.001z"/>
	</g>
</g>
<g>
	<g>
		<path d="M991.281,1606.213c37.343,16.773,82.421,12.316,115.607-11.74c1.548-1.122,0.053-3.726-1.514-2.59
			c-32.265,23.389-76.179,28.089-112.579,11.74C991.048,1602.838,989.521,1605.422,991.281,1606.213L991.281,1606.213z"/>
	</g>
</g>
<g>
	<g>
		<path d="M1308.372,2424.479c-0.638,9.251-5.845,17.335-9.382,25.699c-3.099,7.328-5.722,14.854-7.837,22.525
			c-4.363,15.824-6.512,32.167-6.591,48.573c-0.003,0.693,0.474,1.23,1.101,1.446c2.887,0.996,4.989-1.92,3.631-4.471
			c-0.908-1.705-3.498-0.191-2.59,1.514c-0.081,0.021-0.162,0.043-0.243,0.064c0.367,0.482,0.734,0.964,1.101,1.447
			c0.083-17.358,2.531-34.601,7.478-51.248c2.537-8.536,5.71-16.867,9.479-24.935c3.129-6.697,6.335-13.115,6.852-20.614
			C1311.505,2422.552,1308.504,2422.561,1308.372,2424.479L1308.372,2424.479z"/>
	</g>
</g>
<g>
	<g>
		<path d="M1596.322,1642.217c64.535-84.286,127.861-169.442,189.054-256.193c60.597-85.906,119.352-173.113,176.206-261.541
			c32.045-49.842,63.481-100.074,94.318-150.672c-0.914-0.385-1.828-0.771-2.742-1.156
			c-36.619,93.277-75.521,185.654-116.702,277.009c-40.969,90.882-84.188,180.745-129.565,269.507
			c-12.222,23.908-24.534,47.86-33.747,73.129c-9.215,25.273-15.371,51.539-18.634,78.232c-0.234,1.912,2.768,1.895,3,0
			c3.003-24.562,8.552-48.777,16.653-72.162c8.078-23.317,18.915-45.495,30.092-67.452c22.454-44.109,44.682-88.319,66.22-132.884
			c43.1-89.181,84.019-179.416,122.707-270.598c21.656-51.039,42.61-102.375,62.871-153.984c0.637-1.624-1.886-2.559-2.742-1.156
			c-55.041,90.316-112.011,179.454-170.89,267.316c-58.524,87.332-118.922,173.409-181.141,258.148
			c-35.293,48.068-71.295,95.596-107.546,142.943C1592.559,1642.235,1595.163,1643.731,1596.322,1642.217L1596.322,1642.217z"/>
	</g>
</g>
<g>
	<g>
		<path d="M1978.969,1092.974c-0.037,1.78-0.073,3.56-0.11,5.34c-0.01,0.475,0.282,1.097,0.743,1.295
			c8.065,3.459,16.557,3.923,24.904,1.137c1.822-0.608,1.041-3.507-0.797-2.893c-4.022,1.343-8.14,2.023-12.383,1.73
			c-1.865-0.129-4.176-0.42-5.997-1.038c-3.45-1.172-3.428-2.254-3.36-5.571C1982.009,1091.043,1979.009,1091.043,1978.969,1092.974
			L1978.969,1092.974z"/>
	</g>
</g>
<g>
	<g>
		<path d="M1949.785,1132.22c-5.23,4.736-4.311,12.591-0.185,17.796c6.212,7.838,17.679,7.041,26.558,6.19
			c1.905-0.182,1.924-3.184,0-3c-6.922,0.663-15.029,1.57-21.211-2.343c-5.351-3.387-8.266-11.789-3.04-16.521
			C1953.341,1133.043,1951.214,1130.926,1949.785,1132.22L1949.785,1132.22z"/>
	</g>
</g>
<g>
	<g>
		<path d="M1909.392,1194.711c-4.411,7.422,1.38,14.907,8.465,17.531c10.859,4.022,24.002,3.001,35.068,0.51
			c1.883-0.424,1.086-3.317-0.797-2.893c-8.348,1.879-16.85,2.417-25.347,1.303c-6.849-0.898-20.512-5.323-14.798-14.937
			C1912.971,1194.561,1910.378,1193.051,1909.392,1194.711L1909.392,1194.711z"/>
	</g>
</g>
<g>
	<g>
		<path d="M1873.471,1255.052c-2.274,3.354-1.516,7.741,1.406,10.53c4.179,3.989,10.877,3.424,16.157,3.031
			c14.392-1.072,28.314-5.024,41.245-11.396c1.732-0.853,0.213-3.442-1.514-2.59c-8.862,4.367-18.201,7.579-27.912,9.429
			c-5.048,0.962-10.196,1.598-15.336,1.758c-4.631,0.144-16.478-1.84-11.456-9.247
			C1877.148,1254.964,1874.55,1253.461,1873.471,1255.052L1873.471,1255.052z"/>
	</g>
</g>
<g>
	<g>
		<path d="M1835.009,1304.533c-3.556,2.092-1.578,6.179,1.06,8.269c4.828,3.824,13.109,5.013,18.986,5.708
			c15.831,1.873,31.776-1.641,47.128-5.159c1.881-0.431,1.085-3.324-0.797-2.893c-10.809,2.477-21.718,4.88-32.826,5.439
			c-5.479,0.276-11.001,0.116-16.416-0.816c-2.47-0.425-4.918-0.998-7.31-1.751c-1.064-0.335-11.132-4.546-8.311-6.206
			C1838.186,1306.145,1836.678,1303.551,1835.009,1304.533L1835.009,1304.533z"/>
	</g>
</g>
<g>
	<g>
		<path d="M1808.556,1352.389c-3.128,13.179,11.056,18.598,21.453,19.807c16.943,1.97,34.153,0.132,50.437-4.834
			c1.842-0.562,1.056-3.458-0.797-2.893c-12.465,3.801-25.375,5.736-38.418,5.475c-9.689-0.194-33.481-1.177-29.782-16.757
			C1811.894,1351.31,1809.002,1350.509,1808.556,1352.389L1808.556,1352.389z"/>
	</g>
</g>
<g>
	<g>
		<path d="M1767.085,1406.283c-2.717,5.936-0.438,12.394,4.658,16.276c6.788,5.17,16.751,5.729,24.953,6.301
			c9.58,0.669,19.219,0.179,28.698-1.349c5.253-0.847,10.458-2.037,15.556-3.562c2.266-0.678,4.514-1.42,6.738-2.226
			c1.377-0.499,2.832-0.939,4.14-1.594c0.398-0.199,6.819-2.751,3.782-3.012c0.5,0.5,1,1,1.5,1.5c0.01-0.139,0.02-0.278,0.029-0.416
			c0.136-1.927-2.865-1.918-3,0c-0.01,0.139-0.02,0.277-0.029,0.416c-0.06,0.858,0.739,1.434,1.5,1.5
			c3.866,0.333,3.089-4.668-0.86-4.277c-2.084,0.206-4.295,1.648-6.196,2.372c-2.21,0.842-4.448,1.615-6.705,2.324
			c-5.077,1.596-10.262,2.86-15.503,3.785c-10.35,1.828-20.948,2.281-31.419,1.402c-5.28-0.443-10.907-1.004-15.952-2.755
			c-6.135-2.129-12.532-8.11-9.299-15.172C1770.473,1406.054,1767.888,1404.528,1767.085,1406.283L1767.085,1406.283z"/>
	</g>
</g>
<g>
	<g>
		<path d="M1717.875,1475.121c4.682,5.377,9.566,10.55,16.677,12.452c7.678,2.054,16.269,1.437,24.142,1.358
			c18.2-0.182,36.386-1.936,54.291-5.207c4.371-0.799,13.365-0.523,14.322-6.235c0.565-3.376-1.819-7.572-5.441-7.865
			c-7.605-0.615-7.076,11.827,0.104,12.395c1.925,0.152,1.915-2.848,0-3c-3.549-0.281-3.486-6.968-0.024-6.382
			c1.296,0.645,2.08,1.647,2.35,3.005c-0.769,2.418-2.272,3.653-4.509,3.704c-4.574,1.743-10.406,2.022-15.233,2.783
			c-10.066,1.586-20.211,2.67-30.384,3.269c-9.655,0.568-19.358,0.736-29.025,0.378c-5.368-0.199-10.672-0.608-15.365-3.484
			c-3.849-2.358-6.851-5.926-9.783-9.293C1718.726,1471.542,1716.611,1473.671,1717.875,1475.121L1717.875,1475.121z"/>
	</g>
</g>
<g>
	<g>
		<path d="M1690.028,1511.511c5.466,17.274,28.493,24.444,44.206,28.264c20.312,4.938,41.614,4.62,61.796-0.763
			c1.864-0.497,1.073-3.392-0.797-2.893c-18.557,4.95-38.062,5.544-56.861,1.526c-9.349-1.998-18.521-5.064-27.107-9.28
			c-7.803-3.832-15.592-8.96-18.342-17.651C1692.341,1508.88,1689.444,1509.663,1690.028,1511.511L1690.028,1511.511z"/>
	</g>
</g>
<g>
	<g>
		<path d="M1655.64,1561.257c14.071,16.733,33.462,28.393,54.642,33.658c10.436,2.594,21.284,3.662,32.022,3.009
			c5.185-0.315,10.357-1.02,15.431-2.133c3.44-0.755,10.041-1.199,11.812-4.679c0.874-1.717-1.714-3.237-2.59-1.514
			c-0.808,1.588-5.699,2.26-7.2,2.637c-2.34,0.588-4.702,1.088-7.079,1.498c-5.095,0.879-10.266,1.32-15.435,1.375
			c-10.022,0.108-20.032-1.273-29.669-4.017c-19.367-5.515-36.838-16.527-49.812-31.954
			C1656.518,1557.656,1654.405,1559.788,1655.64,1561.257L1655.64,1561.257z"/>
	</g>
</g>
<g>
	<g>
		<path d="M1617.209,1609.735c37.995,31.11,88.685,44.441,137.07,36.041c1.899-0.33,1.094-3.221-0.798-2.893
			c-47.229,8.199-97.061-4.9-134.151-35.269C1617.848,1606.4,1615.714,1608.51,1617.209,1609.735L1617.209,1609.735z"/>
	</g>
</g>
<g>
	<g>
		<path d="M1894.081,3131.168c-7.839,89.012-7.205,178.583-0.507,267.646c6.546,87.051,18.667,173.679,34.355,259.533
			c13.339,72.997,29.806,145.513,51.562,216.489c21.515,70.189,48.25,138.97,82.472,203.986
			c33.682,63.99,74.782,124.235,124.167,177.166c6.285,6.736,12.706,13.341,19.239,19.837c1.371,1.363,3.493-0.757,2.121-2.121
			c-51.88-51.584-95.408-110.919-131.142-174.679c-35.882-64.025-64.02-132.165-86.68-201.905
			c-22.758-70.043-40.057-141.774-54.047-214.049c-16.265-84.033-28.882-168.921-36.561-254.178
			c-7.91-87.833-10.28-176.274-4.55-264.318c0.725-11.146,1.589-22.281,2.569-33.406
			C1897.25,3129.245,1894.249,3129.257,1894.081,3131.168L1894.081,3131.168z"/>
	</g>
</g>
<g>
	<g>
		<path d="M1285.789,3189.342c1.93,0,1.934-3,0-3C1283.859,3186.342,1283.856,3189.342,1285.789,3189.342L1285.789,3189.342z"/>
	</g>
</g>
<g>
	<g>
		<path d="M1285.789,3189.342c1.93,0,1.934-3,0-3C1283.859,3186.342,1283.856,3189.342,1285.789,3189.342L1285.789,3189.342z"/>
	</g>
</g>
<g>
	<g>
		<path d="M1276.594,3182.557c2.397,78.694,3.536,157.47,9.134,236.027c5.154,72.325,11.778,144.686,20.699,216.797
			c8.814,71.246,18.096,142.249,29.991,213.152c12.343,73.571,26.958,146.742,43.067,219.576
			c32.773,148.183,75.352,293.95,108.314,442.045c8.1,36.392,17.531,72.126,24.73,108.677c7.254,36.832,14.026,73.761,20.016,110.82
			c12.144,75.135,21.302,151.278,26.026,227.244c4.863,78.196,6.399,156.593,7.462,234.919
			c1.048,77.164,0.474,154.545-4.215,231.596c-1.159,19.051-2.736,38.07-4.711,57.054c-0.199,1.918,2.802,1.904,3,0
			c7.993-76.84,9.424-154.61,9.364-231.818c-0.061-77.799-1.777-155.648-5.027-233.373c-3.129-74.832-9.67-149.681-19.709-223.924
			c-4.974-36.785-10.859-73.441-17.389-109.98c-3.385-18.939-6.941-37.848-10.629-56.73c-3.512-17.981-5.748-37.177-11.333-54.632
			c-10.961-34.259-16.777-70.571-25-105.692c-8.609-36.773-18.225-73.262-27.933-109.753
			c-19.65-73.861-38.123-148.255-55.422-222.699c-16.961-72.986-32.725-146.26-46.38-219.941
			c-6.885-37.147-13.237-74.394-18.993-111.733c-2.922-18.961-5.692-37.946-8.304-56.953c-2.31-16.806-4.038-33.922-6.823-50.635
			c-11.94-71.668-15.843-145.276-23.786-217.422c-8.49-77.109-9.38-155.815-11.481-233.382c-0.535-19.747-1.066-39.494-1.668-59.24
			C1279.536,3180.631,1276.535,3180.623,1276.594,3182.557L1276.594,3182.557z"/>
	</g>
</g>
<g>
	<g>
		<path d="M2199.578,4267.925c10.546,11.391,23.422,21.374,35.079,31.641c12.48,10.991,25.147,21.771,38.007,32.316
			c24.714,20.265,50.145,39.649,76.169,58.201c56.063,39.965,114.902,76.115,175.235,109.258
			c57.799,31.75,117.304,60.313,178.157,85.719c63.919,26.687,128.029,52.175,193.857,73.959
			c135.625,44.882,274.758,79.446,414.639,108.316c138.714,28.628,278.567,51.235,418.3,74.208
			c141.998,23.345,284.199,46.449,425.201,75.314c17.55,3.593,35.078,7.292,52.585,11.087c1.882,0.408,2.687-2.483,0.797-2.893
			c-138.998-30.127-279.359-53.197-419.595-76.668c-139.843-23.405-279.969-45.319-419.158-72.445
			c-138.719-27.035-276.875-59.261-411.978-100.735c-131.577-40.392-261.077-90.456-383.692-153.198
			c-120.198-61.505-234.951-135.205-336.404-224.559c-11.664-10.273-24.529-20.246-35.079-31.641
			C2200.385,4264.383,2198.268,4266.509,2199.578,4267.925L2199.578,4267.925z"/>
	</g>
</g>
<g id="XMLID_1_">
	<path style="fill:none;stroke:#1D1D1B;stroke-linecap:round;stroke-miterlimit:10;" d="M676.36,3806.68
		c3.44,5.17,4.87,10.34,3.91,15.28c-4.14,21.41-51.61,30.23-106.03,19.71c-47.95-9.28-85.29-30.48-90.66-50.04
		c-0.73-2.64-0.87-5.25-0.38-7.8c4.14-21.41,51.62-30.24,106.04-19.71C631.12,3772.23,664.91,3789.42,676.36,3806.68z"/>
	<path style="fill:none;stroke:#000000;stroke-miterlimit:10;" d="M1291.41,3379.65c-96.86-5.58-193.88-8.59-290.91-9.02
		c-37.82-0.17-77.31,0.44-110.89,17.86c-59.68,30.95-82.01,103.15-103.19,166.96c-28.84,86.9-65.73,171.12-110.06,251.23"/>
	<path style="fill:none;stroke:#000000;stroke-miterlimit:10;" d="M1269.65,3145.73c-141.99,1.21-283.8,21.79-420.28,60.99
		c-51.58,14.81-104.25,33.37-142.74,70.76c-28.9,28.08-47.66,64.76-65.03,101.12c-54.17,113.38-99.87,230.56-144.58,348.02"/>
	<path style="fill:none;stroke:#1D1D1B;stroke-linecap:round;stroke-miterlimit:10;" d="M687.64,3748.34
		c-54.68-38.09-128.77-46.41-190.62-21.72"/>
	<path style="fill:none;stroke:#1D1D1B;stroke-linecap:round;stroke-miterlimit:10;" d="M492.66,3728.43
		c1.45-0.62,2.9-1.22,4.36-1.81"/>
	<path style="fill:none;stroke:#000000;stroke-miterlimit:10;" d="M497.02,3726.62c-5.55,14.59-11.09,29.19-16.63,43.79
		c-2.42,6.39-4.62,14.29-0.14,19.45c0.9,1.04,2.07,1.59,3.33,1.77"/>
</g>
<g>
	<g>
		<path style="fill:#1D1D1B;" d="M1464.249,3102.813c-79.019-20.838-158.935-38.236-239.478-52.062
			c-80.018-13.736-160.639-23.981-241.551-30.675c-38.85-3.214-78.258-6.595-117.082-1.322
			c-35.214,4.783-67.746,18.188-97.053,38.121c-28.401,19.317-53.277,43.313-76.895,68.115
			c-26.828,28.174-52.843,57.161-78.649,86.27c-53.595,60.457-105.537,122.379-155.747,185.676
			c-6.098,7.688-12.169,15.397-18.218,23.124c-1.177,1.503,0.932,3.641,2.121,2.121c49.198-62.846,100.064-124.381,152.572-184.49
			c26.253-30.054,52.913-59.753,79.968-89.086c23.205-25.158,46.765-50.198,73.324-71.885
			c26.997-22.044,57.412-40.404,91.289-49.497c38.381-10.302,78.652-8.998,117.928-6.2c80.609,5.742,160.99,15.311,240.76,28.215
			c79.689,12.891,158.816,29.25,237.082,49.021c9.623,2.431,19.232,4.917,28.829,7.448
			C1465.32,3106.199,1466.117,3103.306,1464.249,3102.813L1464.249,3102.813z"/>
	</g>
</g>
<g>
	<g>
		<path style="fill:#1D1D1B;" d="M1490.132,2942.574c-82.837-33.59-168.7-59.57-256.26-77.561
			c-86.994-17.875-175.602-27.926-264.391-29.938c-44.499-1.008-89.047,0.009-133.451,3.079
			c-21.174,1.464-42.794,2.513-63.626,6.801c-19.075,3.926-36.165,11.954-50.923,24.705c-14.453,12.488-26.07,27.857-37.325,43.178
			c-13.131,17.874-26.298,35.716-39.701,53.387c-27.806,36.66-56.349,72.761-85.601,108.279
			c-57.321,69.601-117.364,136.963-179.953,201.869c-7.824,8.113-15.689,16.186-23.589,24.225c-0.71,0.722-0.497,1.82,0.304,2.356
			c12.144,8.128,26.848,10.598,41,6.98c1.869-0.478,1.077-3.372-0.798-2.893c-13.415,3.43-27.187,1.02-38.688-6.677
			c0.101,0.785,0.202,1.571,0.304,2.356c62.709-63.81,122.969-130.015,180.559-198.481c28.794-34.232,56.924-69.022,84.368-104.345
			c13.26-17.067,26.364-34.256,39.303-51.568c12.861-17.208,25.113-34.955,38.571-51.705c12.007-14.944,25.63-29.114,42.676-38.283
			c19.622-10.556,42.168-12.923,63.999-14.875c43.989-3.934,88.157-5.845,132.321-5.758c88.894,0.175,177.763,8.438,265.174,24.606
			c86.512,16.001,171.604,39.721,253.858,70.948c10.404,3.95,20.759,8.027,31.072,12.209
			C1491.123,2946.192,1491.901,2943.291,1490.132,2942.574L1490.132,2942.574z"/>
	</g>
</g>
<g>
	<g>
		<path style="fill:#1D1D1B;" d="M353.26,3300.014c44.882,25.008,77.191,69.749,86.88,120.198c0.364,1.894,3.256,1.092,2.893-0.798
			c-9.826-51.164-42.754-96.637-88.258-121.991C353.086,3296.483,351.571,3299.073,353.26,3300.014L353.26,3300.014z"/>
	</g>
</g>
<g>
	<g>
		<path style="fill:#1D1D1B;" d="M361.426,3290.289c-17.327,13.355-35.036,26.335-52.034,40.105
			c-2.644,2.142-8.027,7.843-3.319,10.939c2.729,1.794,7.429,0.029,6.31-3.591c-0.568-1.839-3.465-1.054-2.893,0.797
			c-1.485-4.807,1.91-5.936,5.358-8.594c2.102-1.62,4.205-3.241,6.307-4.861c4.73-3.646,9.461-7.292,14.191-10.938
			c9.198-7.089,18.396-14.179,27.594-21.268C364.448,3291.717,362.955,3289.11,361.426,3290.289L361.426,3290.289z"/>
	</g>
</g>
<g>
	<g>
		<path style="fill:#1D1D1B;" d="M439.938,3420.039c-6.478,18.882-12.955,37.763-19.433,56.645c-0.628,1.83,2.269,2.616,2.893,0.798
			c6.478-18.882,12.955-37.763,19.433-56.645C443.459,3419.006,440.562,3418.22,439.938,3420.039L439.938,3420.039z"/>
	</g>
</g>
<g>
	<g>
		<path style="fill:#1D1D1B;" d="M301.565,3356.197c47.777,26.271,86.788,66.893,111.132,115.678c0.862,1.728,3.451,0.21,2.59-1.514
			c-24.555-49.208-64.02-90.258-112.208-116.754C301.386,3352.676,299.871,3355.266,301.565,3356.197L301.565,3356.197z"/>
	</g>
</g>
<g>
	<g>
		<path style="fill:#1D1D1B;" d="M-866,4215.5c1.93,0,1.934-3,0-3C-867.93,4212.5-867.934,4215.5-866,4215.5L-866,4215.5z"/>
	</g>
</g>
<g>
	<g>
		<path style="fill:#1D1D1B;" d="M3499,2825.5c1.93,0,1.934-3,0-3C3497.07,2822.5,3497.066,2825.5,3499,2825.5L3499,2825.5z"/>
	</g>
</g>
<g>
	<g>
		<path style="fill:#1D1D1B;" d="M1960.539,1846.241c0.393-2.333-0.232-3.842-2.114-5.247c-0.962-0.718-2.228,0.267-2.257,1.295
			c-0.365,12.86,1.336,25.521,5.082,37.829c0.561,1.842,3.457,1.057,2.893-0.798c-3.671-12.059-5.333-24.431-4.975-37.031
			c-0.752,0.432-1.505,0.864-2.257,1.295c0.245,0.62,0.49,1.24,0.735,1.86C1957.328,1847.332,1960.219,1848.144,1960.539,1846.241
			L1960.539,1846.241z"/>
	</g>
</g>
<g id="XMLID_2_">
	<g>
		<path style="fill:#77FFED;" d="M1817.91,1843.78c2.32,2.65,4.81,5.14,7.38,7.56c-1.86,54.63-46.73,98.35-101.82,98.35
			c-6.55,0-12.96-0.62-19.17-1.8c-7.09-7.62-14.29-15.14-21.76-22.37c27.37,7.96,65.52-4.97,95.51-34.97
			c16.52-16.51,27.82-35.5,33.35-53.8c0.51,0.47,1.02,0.93,1.53,1.4C1814.6,1840.02,1816.27,1841.89,1817.91,1843.78z"/>
		<path style="fill:#FF1FE7;" d="M1811.01,1836.4c0.13,0.11,0.26,0.23,0.39,0.35c-5.53,18.3-16.83,37.29-33.35,53.8
			c-29.99,30-68.14,42.93-95.51,34.97c-1.82-1.78-3.66-3.53-5.51-5.25c-0.88-0.84-1.77-1.66-2.66-2.47
			c-0.96-0.89-1.94-1.78-2.92-2.66c-2.18-1.95-4.4-3.9-6.66-5.84c-0.75-0.66-1.51-1.3-2.28-1.94c-0.73-0.62-1.46-1.23-2.2-1.84
			c-0.07-0.06-0.15-0.12-0.23-0.19c-0.7-0.58-1.4-1.15-2.11-1.72c-0.09-0.07-0.17-0.14-0.25-0.2c-0.66-0.53-1.32-1.06-1.98-1.58
			c-0.7-0.56-1.41-1.11-2.12-1.65c-0.17-0.14-0.34-0.27-0.51-0.4c-11.81-27.56,0.73-69.11,32.89-101.28
			c14.37-14.36,30.6-24.76,46.62-30.86c0.01,0,0.02,0.01,0.03,0.01c0.13,0.06,0.27,0.11,0.4,0.15c0.13,0.05,0.27,0.09,0.4,0.12
			c0.27,0.22,0.54,0.43,0.81,0.64c2.35,2.91,4.73,5.78,7.2,8.59c2.2,2.51,4.47,4.91,6.81,7.22c4.66,4.62,9.57,8.88,14.65,12.99
			c1.26,1.03,2.54,2.05,3.83,3.06s2.59,2.02,3.89,3.03c1.2,1.15,2.41,2.29,3.64,3.43c5.51,5.09,11.31,9.95,17.36,14.43
			c0.01,0,0.01,0.01,0.01,0.01c1.34,1,2.69,1.97,4.06,2.93c0.01,0,0.01,0,0.01,0.01c1.36,0.96,2.74,1.89,4.13,2.81
			c0.7,0.46,1.4,0.91,2.1,1.36l0.01,0.01C1805.01,1831.05,1808.03,1833.7,1811.01,1836.4z M1747.82,1852.42
			c0-12.35-10.02-22.37-22.37-22.37c-12.36,0-22.37,10.02-22.37,22.37c0,12.35,10.01,22.37,22.37,22.37
			C1737.8,1874.79,1747.82,1864.77,1747.82,1852.42z"/>
		<path style="fill:#FF1FE7;" d="M1801.96,1828.44c3.05,2.61,6.07,5.26,9.05,7.96C1808.03,1833.7,1805.01,1831.05,1801.96,1828.44z"
			/>
		<path style="fill:#FF1FE7;" d="M1795.72,1824.26c1.37,0.95,2.75,1.89,4.13,2.81C1798.46,1826.15,1797.08,1825.22,1795.72,1824.26z
			"/>
		<path style="fill:#FF1FE7;" d="M1791.65,1821.32c1.34,0.99,2.7,1.97,4.06,2.93C1794.34,1823.29,1792.99,1822.32,1791.65,1821.32z"
			/>
		<path style="fill:#FF1FE7;" d="M1774.28,1806.88c5.52,5.09,11.32,9.94,17.36,14.43
			C1785.59,1816.83,1779.79,1811.97,1774.28,1806.88z"/>
		<path style="fill:#77FFED;" d="M1762.92,1797.36c1.26,1.02,2.54,2.04,3.83,3.06C1765.46,1799.41,1764.18,1798.39,1762.92,1797.36z
			"/>
		<path style="fill:#77FFED;" d="M1748.27,1784.37c4.66,4.62,9.57,8.88,14.65,12.99
			C1757.84,1793.25,1752.93,1788.99,1748.27,1784.37z"/>
		<path d="M1725.45,1830.05c12.35,0,22.37,10.02,22.37,22.37c0,12.35-10.02,22.37-22.37,22.37c-12.36,0-22.37-10.02-22.37-22.37
			C1703.08,1840.07,1713.09,1830.05,1725.45,1830.05z"/>
		<path style="fill:#77FFED;" d="M1732.65,1767.65c0.13,0.06,0.26,0.11,0.4,0.15C1732.92,1767.76,1732.78,1767.71,1732.65,1767.65z"
			/>
		<path style="fill:#77FFED;" d="M1727.83,1763.85c1.32,1.31,2.96,3.01,4.79,3.79c-16.02,6.1-32.25,16.5-46.62,30.86
			c-32.16,32.17-44.7,73.72-32.89,101.28c0.17,0.13,0.34,0.26,0.51,0.4c-7.97-6.13-16.42-11.75-25.38-16.1
			c-4.29-11.27-6.65-23.49-6.65-36.26c0-51.58,38.33-94.19,88.04-100.94c1.42,1.13,2.89,2.21,4.38,3.26
			c0.4,0.51,0.95,0.97,1.68,1.34c0.43,0.22,0.86,0.46,1.29,0.68c2.66,1.75,5.4,3.39,8.18,4.98c0.02,0.02,0.04,0.04,0.06,0.06
			c0.47,0.59,0.95,1.19,1.42,1.79C1726.11,1760.56,1726.34,1762.38,1727.83,1763.85z"/>
		<path style="fill:#FF1FE7;" d="M1682.54,1925.52c-0.01,0-0.03-0.01-0.04-0.01c-1.81-1.76-3.63-3.51-5.47-5.24
			C1678.88,1921.99,1680.72,1923.74,1682.54,1925.52z"/>
		<path style="fill:#FF1FE7;" d="M1677.03,1920.27c-0.88-0.83-1.77-1.65-2.66-2.47C1675.26,1918.61,1676.15,1919.43,1677.03,1920.27
			z"/>
		<path style="fill:#FF1FE7;" d="M1664.79,1909.3c-0.76-0.65-1.52-1.3-2.28-1.94C1663.28,1908,1664.04,1908.64,1664.79,1909.3z"/>
		<path style="fill:#FF1FE7;" d="M1662.51,1907.36c-0.73-0.61-1.46-1.23-2.2-1.84C1661.05,1906.13,1661.78,1906.74,1662.51,1907.36z
			"/>
		<path style="fill:#FF1FE7;" d="M1660.08,1905.33c-0.7-0.57-1.4-1.15-2.11-1.72C1658.68,1904.18,1659.38,1904.75,1660.08,1905.33z"
			/>
		<path style="fill:#FF1FE7;" d="M1657.72,1903.41c-0.66-0.53-1.31-1.06-1.98-1.58C1656.4,1902.35,1657.06,1902.88,1657.72,1903.41z
			"/>
	</g>
	<g>
		<path style="fill:none;stroke:#1D1D1B;stroke-linecap:round;stroke-miterlimit:10;" d="M1732.62,1767.64
			c-1.83-0.78-3.47-2.48-4.79-3.79c-1.49-1.47-1.72-3.29-1.19-4.86c-0.47-0.6-0.95-1.2-1.42-1.79c-0.02-0.02-0.04-0.04-0.06-0.06
			c-2.78-1.59-5.52-3.23-8.18-4.98c-0.43-0.22-0.86-0.46-1.29-0.68c-0.73-0.37-1.28-0.83-1.68-1.34c-1.49-1.05-2.96-2.13-4.38-3.26
			c-49.71,6.75-88.04,49.36-88.04,100.94c0,12.77,2.36,24.99,6.65,36.26c8.96,4.35,17.41,9.97,25.38,16.1"/>
		<path style="fill:none;stroke:#1D1D1B;stroke-linecap:round;stroke-miterlimit:10;" d="M1733.05,1767.8
			c-0.14-0.04-0.27-0.09-0.4-0.15"/>
		<path style="fill:none;stroke:#1D1D1B;stroke-linecap:round;stroke-miterlimit:10;" d="M1766.75,1800.42
			c-1.29-1.02-2.57-2.04-3.83-3.06c-5.08-4.11-9.99-8.37-14.65-12.99"/>
		<path style="fill:none;stroke:#1D1D1B;stroke-linecap:round;stroke-miterlimit:10;" d="M1682.54,1925.52
			c7.47,7.23,14.67,14.75,21.76,22.37c6.21,1.18,12.62,1.8,19.17,1.8c55.09,0,99.96-43.72,101.82-98.35
			c-2.57-2.42-5.06-4.91-7.38-7.56c-1.64-1.89-3.31-3.76-4.98-5.63c-0.51-0.47-1.02-0.93-1.53-1.4"/>
		<path style="fill:none;stroke:#1D1D1B;stroke-linecap:round;stroke-miterlimit:10;" d="M1674.37,1917.8
			c0.89,0.82,1.78,1.64,2.66,2.47c1.84,1.73,3.66,3.48,5.47,5.24c0.01,0,0.03,0.01,0.04,0.01c27.37,7.96,65.52-4.97,95.51-34.97
			c16.52-16.51,27.82-35.5,33.35-53.8"/>
		<path style="fill:none;stroke:#1D1D1B;stroke-linecap:round;stroke-miterlimit:10;" d="M1660.31,1905.52
			c0.74,0.61,1.47,1.23,2.2,1.84c0.76,0.64,1.52,1.29,2.28,1.94"/>
		<path style="fill:none;stroke:#1D1D1B;stroke-linecap:round;stroke-miterlimit:10;" d="M1657.97,1903.61
			c0.71,0.57,1.41,1.15,2.11,1.72"/>
		<path style="fill:none;stroke:#1D1D1B;stroke-linecap:round;stroke-miterlimit:10;" d="M1655.74,1901.83
			c0.67,0.52,1.32,1.05,1.98,1.58"/>
		<path style="fill:none;stroke:#1D1D1B;stroke-linecap:round;stroke-miterlimit:10;" d="M1732.62,1767.64
			c-16.02,6.1-32.25,16.5-46.62,30.86c-32.16,32.17-44.7,73.72-32.89,101.28c0.17,0.13,0.34,0.26,0.51,0.4"/>
		<path style="fill:none;stroke:#1D1D1B;stroke-linecap:round;stroke-miterlimit:10;" d="M1733.05,1767.8
			c-0.13-0.04-0.27-0.09-0.4-0.15"/>
		<path style="fill:none;stroke:#1D1D1B;stroke-linecap:round;stroke-miterlimit:10;" d="M1766.75,1800.42
			c-1.29-1.01-2.57-2.03-3.83-3.06c-5.08-4.11-9.99-8.37-14.65-12.99"/>
		<path style="fill:none;stroke:#1D1D1B;stroke-linecap:round;stroke-miterlimit:10;" d="M1791.64,1821.31
			c-6.04-4.49-11.84-9.34-17.36-14.43"/>
		<path style="fill:none;stroke:#1D1D1B;stroke-linecap:round;stroke-miterlimit:10;" d="M1795.71,1824.25
			c-1.36-0.96-2.72-1.94-4.06-2.93"/>
		<path style="fill:none;stroke:#1D1D1B;stroke-linecap:round;stroke-miterlimit:10;" d="M1799.85,1827.07
			c-1.38-0.92-2.76-1.86-4.13-2.81"/>
		<path style="fill:none;stroke:#1D1D1B;stroke-linecap:round;stroke-miterlimit:10;" d="M1811.01,1836.4
			c-2.98-2.7-6-5.35-9.05-7.96"/>
		<path style="fill:none;stroke:#1D1D1B;stroke-linecap:round;stroke-miterlimit:10;" d="M1703.08,1852.42
			c0-12.35,10.01-22.37,22.37-22.37c12.35,0,22.37,10.02,22.37,22.37c0,12.35-10.02,22.37-22.37,22.37
			C1713.09,1874.79,1703.08,1864.77,1703.08,1852.42z"/>
	</g>
</g>
<g>
	<g>
		<path style="fill:#1D1D1B;" d="M2166.895,1764.447c1.93,0,1.934-3,0-3C2164.964,1761.447,2164.961,1764.447,2166.895,1764.447
			L2166.895,1764.447z"/>
	</g>
</g>
<ellipse transform="matrix(0.7071 -0.7071 0.7071 0.7071 -799.4216 1741.7882)" style="fill:#EDEDED;stroke:#1D1D1B;stroke-linecap:round;stroke-miterlimit:10;" cx="1702.814" cy="1835.881" rx="13.783" ry="20.374"/>
<g>
	<g>
		<path style="fill:#1D1D1B;" d="M1582.054,1756.936c9.563,23.506,14.106,48.531,21.127,72.823
			c6.914,23.924,16.93,46.035,33.93,64.531c17.802,19.368,39.181,36.386,60.322,51.956c21.766,16.03,45.097,29.935,69.552,41.452
			c28.308,13.332,57.693,22.343,89.121,23.555c1.931,0.075,1.927-2.926,0-3c-54.563-2.105-105.932-28.424-149.846-59.333
			c-21.403-15.065-42.348-31.976-60.937-50.433c-18.319-18.188-30.004-39.417-37.591-63.967
			c-8.039-26.014-12.489-53.074-22.785-78.382C1584.229,1754.373,1581.325,1755.145,1582.054,1756.936L1582.054,1756.936z"/>
	</g>
</g>
<g>
	<g>
		<path style="fill:#1D1D1B;" d="M1858.878,2008.245c-1.859-53.363-10.264-106.345-25.029-157.658
			c-0.533-1.852-3.429-1.064-2.893,0.798c14.694,51.065,23.072,103.755,24.922,156.861
			C1855.945,2010.17,1858.946,2010.179,1858.878,2008.245L1858.878,2008.245z"/>
	</g>
</g>
<g>
	<g>
		<path style="fill:#1D1D1B;" d="M1832.424,1850.176c-42.755-39.733-92.708-72.511-127.887-119.824
			c-1.139-1.532-3.744-0.038-2.59,1.514c35.359,47.555,85.384,80.496,128.356,120.432
			C1831.715,1853.611,1833.842,1851.494,1832.424,1850.176L1832.424,1850.176z"/>
	</g>
</g>
<g>
	<g>
		<path style="fill:#1D1D1B;" d="M1583.043,1753.933c0.102,0.04,0.204,0.08,0.305,0.12c-0.367-0.482-0.734-0.964-1.101-1.446
			c0.095-0.205,0.19-0.41,0.286-0.615c0.606,0.078,1.212,0.156,1.818,0.234c-1.16-1.211,0.134-6.98,0.52-8.335
			c1.189-4.176,4.199-6.6,8.607-6.436c5.65,0.211,10.089,4.872,14.888,7.302c8.975,4.543,18.804,2.332,27.745-1.102
			c10.572-4.06,20.533-8.844,31.829-10.66c12.461-2.003,25.086-1.294,37.285,1.891c1.87,0.488,2.667-2.405,0.797-2.893
			c-13.003-3.394-26.508-4.061-39.762-1.745c-14.11,2.465-26.167,10.329-39.997,13.367c-8.397,1.844-14.706-0.249-21.739-4.723
			c-4.234-2.693-9.106-5.411-14.332-4.336c-4.13,0.849-6.792,4.019-8.015,7.891c-0.968,3.065-2.417,9.325,0.051,11.902
			c0.48,0.501,1.23,0.535,1.818,0.234c0.919-0.469,1.071-0.984,1.2-1.976c0.09-0.693-0.539-1.226-1.101-1.446
			c-0.102-0.04-0.204-0.08-0.306-0.12C1582.042,1750.336,1581.263,1753.235,1583.043,1753.933L1583.043,1753.933z"/>
	</g>
</g>
<g>
	<g>
		<path style="fill:#1D1D1B;" d="M1700.642,1745.134c24.331,17.949,47.835,36.997,70.435,57.083
			c11.076,9.844,21.937,19.929,32.569,30.25c10.318,10.016,21.245,19.92,27.292,33.229c1.688,3.717,7.001,4.546,10.261,2.691
			c3.815-2.171,4.356-6.595,2.691-10.261c-6.167-13.575-17.137-24.068-27.646-34.326c-11.266-10.997-22.79-21.732-34.559-32.188
			c-23.559-20.931-48.112-40.721-73.471-59.428c-3.284-2.423-8.338-0.52-10.261,2.691
			C1695.683,1738.659,1697.4,1742.742,1700.642,1745.134L1700.642,1745.134z"/>
	</g>
</g>
<g>
	<g>
		<path style="fill:#1D1D1B;" d="M1705.16,1747.191c1.727-6.107-3.362-10.152-7.6-13.742c-5.161-4.372-10.825-7.973-16.946-10.844
			c-3.475-1.63-6.525,3.541-3.028,5.181c3.914,1.836,7.68,3.927,11.219,6.419c2.371,1.669,11.632,7.633,10.569,11.391
			C1698.322,1749.317,1704.109,1750.906,1705.16,1747.191L1705.16,1747.191z"/>
	</g>
</g>
<g>
	<g>
		<path style="fill:#1D1D1B;" d="M1705.544,1732.073c-4.323-2.557-8.645-5.113-12.968-7.67c-3.331-1.97-6.353,3.214-3.028,5.181
			c4.323,2.557,8.645,5.113,12.968,7.67C1705.847,1739.224,1708.869,1734.039,1705.544,1732.073L1705.544,1732.073z"/>
	</g>
</g>
<g>
	<g>
		<path style="fill:#1D1D1B;" d="M1837.28,1855.746c4.424,4.925,7.193,10.951,7.916,17.548c0.416,3.797,6.421,3.839,6,0
			c-0.905-8.266-4.107-15.593-9.673-21.791C1838.937,1848.624,1834.705,1852.879,1837.28,1855.746L1837.28,1855.746z"/>
	</g>
</g>
<g>
	<g>
		<path style="fill:#1D1D1B;" d="M1833.427,1862.744c4.228,6.08,8.753,11.936,13.571,17.56c2.516,2.937,6.743-1.324,4.243-4.243
			c-4.488-5.239-8.695-10.682-12.633-16.346C1836.419,1856.567,1831.215,1859.563,1833.427,1862.744L1833.427,1862.744z"/>
	</g>
</g>
<g>
	<g>
		<path style="fill:#1D1D1B;" d="M1744.64,1776.942c2.693,2.595,5.123,5.332,7.313,8.372c1.571-1.212,3.141-2.424,4.712-3.635
			c-1.948-1.534-3.897-3.069-5.846-4.603c-2.417-1.903-6.864,0.588-4.712,3.635c1.09,1.544,2.18,3.087,3.27,4.631
			c2.212,3.132,6.955,0.454,5.181-3.028c-0.483-0.948-0.966-1.896-1.45-2.845c-1.727,1.01-3.454,2.019-5.181,3.028
			c0.61,0.96,1.22,1.919,1.831,2.879c2.065,3.248,7.095,0.351,5.181-3.028c-1.436-2.535-3.231-4.306-5.824-5.647
			c-3.194-1.653-5.664,2.092-3.635,4.712c4.224,5.456,9.264,9.934,15.107,13.589c3.345,2.092,6.063-2.941,3.028-5.181
			c-2.877-2.123-5.755-4.247-8.632-6.37c-2.717-2.005-6.281,2.565-3.635,4.712c13.893,11.274,27.786,22.548,41.68,33.821
			c1.212-1.571,2.424-3.141,3.635-4.712c-7.178-3.448-13.135-8.387-17.659-14.966c-2.174-3.162-7.376-0.164-5.181,3.028
			c5.09,7.402,11.699,13.221,19.812,17.119c2.84,1.364,6.465-2.416,3.635-4.712c-13.893-11.274-27.787-22.548-41.68-33.821
			c-1.212,1.571-2.424,3.141-3.635,4.712c2.877,2.123,5.755,4.246,8.632,6.37c1.009-1.727,2.019-3.454,3.028-5.181
			c-5.431-3.396-9.977-7.592-13.893-12.651c-1.212,1.571-2.424,3.141-3.635,4.712c1.719,0.889,2.698,1.776,3.671,3.494
			c1.727-1.009,3.454-2.019,5.181-3.028c-0.61-0.96-1.22-1.919-1.831-2.879c-2.08-3.271-6.933-0.411-5.181,3.028
			c0.483,0.948,0.966,1.896,1.45,2.845c1.727-1.009,3.454-2.019,5.181-3.028c-1.09-1.544-2.18-3.087-3.27-4.631
			c-1.571,1.212-3.141,2.424-4.712,3.635c1.949,1.534,3.897,3.069,5.846,4.603c2.409,1.897,6.894-0.607,4.712-3.635
			c-2.486-3.45-5.187-6.633-8.251-9.586C1746.101,1770.019,1741.853,1774.256,1744.64,1776.942L1744.64,1776.942z"/>
	</g>
</g>
<g>
	<g>
		<path style="fill:#1D1D1B;" d="M1778.306,1790.153c4.842,12.539,17.509,19.779,30.774,17.529
			c13.325-2.26,24.244-12.143,28.69-24.751c0.322-0.912-1.127-1.305-1.446-0.399c-3.928,11.141-13.139,20.03-24.641,23.062
			c-13.284,3.502-26.924-2.878-31.929-15.84C1779.408,1788.863,1777.957,1789.251,1778.306,1790.153L1778.306,1790.153z"/>
	</g>
</g>
<g>
	<g>
		<path style="fill:#1D1D1B;" d="M1806.617,1818.821c16.421,15.972,43.871,7.49,48.266-15.045c0.184-0.943-1.261-1.347-1.446-0.399
			c-4.172,21.393-30.096,29.618-45.76,14.383C1806.985,1817.087,1805.923,1818.146,1806.617,1818.821L1806.617,1818.821z"/>
	</g>
</g>
<g>
	<g>
		<path style="fill:#1D1D1B;" d="M1823.799,1840.927c4.994,2.169,10.223,4.424,15.787,4.077c4.914-0.306,9.393-2.731,13.404-5.408
			c8.12-5.421,15.141-12.16,16.471-22.232c0.126-0.954-1.375-0.945-1.5,0c-1.257,9.519-8.131,15.862-15.728,20.937
			c-3.807,2.543-7.983,4.859-12.647,5.203c-5.271,0.39-10.315-1.825-15.03-3.872
			C1823.68,1839.251,1822.915,1840.543,1823.799,1840.927L1823.799,1840.927z"/>
	</g>
</g>
<g>
	<g>
		<path style="fill:#1D1D1B;" d="M1838.789,1850.576c3.495,5.745,12.172,6.564,18.269,5.939c6.606-0.677,12.69-4.64,13.74-11.534
			c0.144-0.944-1.301-1.351-1.446-0.399c-0.97,6.373-6.44,9.795-12.503,10.397c-5.421,0.539-13.629-0.006-16.765-5.16
			C1839.583,1848.995,1838.285,1849.748,1838.789,1850.576L1838.789,1850.576z"/>
	</g>
</g>
<g>
	<g>
		<path style="fill:#1D1D1B;" d="M1796.086,1812.089c6.717,0.597,12.26,5.604,19.169,4.977c5.625-0.511,10.348-4.018,14.671-7.362
			c0.762-0.59-0.306-1.644-1.061-1.061c-5.759,4.455-12.213,8.612-19.759,6.139c-4.44-1.455-8.283-3.773-13.02-4.194
			C1795.124,1810.504,1795.13,1812.005,1796.086,1812.089L1796.086,1812.089z"/>
	</g>
</g>
<g>
	<g>
		<path style="fill:#1D1D1B;" d="M1816.749,1833.166c11.582,8.908,24.855-0.455,33.846-8.362c0.726-0.639-0.338-1.696-1.061-1.061
			c-8.51,7.484-21.001,16.609-32.029,8.127C1816.741,1831.283,1815.994,1832.585,1816.749,1833.166L1816.749,1833.166z"/>
	</g>
</g>
<g>
	<g>
		<path style="fill:#1D1D1B;" d="M1825.264,1846.311c10.705,3.101,22.805,5.896,32.114-2.052c0.735-0.628-0.33-1.684-1.061-1.061
			c-8.862,7.566-20.556,4.592-30.655,1.666C1824.733,1844.595,1824.337,1846.042,1825.264,1846.311L1825.264,1846.311z"/>
	</g>
</g>
<g>
	<g>
		<path style="fill:#1D1D1B;" d="M1774.375,1794.109c10.38,3.2,21.78,6.395,32.208,1.625c9.36-4.281,17.828-13.195,22.595-22.199
			c0.451-0.853-0.843-1.612-1.295-0.757c-4.406,8.322-12.176,16.558-20.592,20.938c-10.467,5.447-21.934,2.209-32.517-1.054
			C1773.849,1792.378,1773.453,1793.825,1774.375,1794.109L1774.375,1794.109z"/>
	</g>
</g>
<g>
	<g>
		<path style="fill:#1D1D1B;" d="M1871.79,5899.176c70.656,22.933,141.122,46.443,211.611,69.88
			c35.841,11.917,71.689,23.811,107.574,35.595c33.371,10.958,67.27,20.335,100.5,31.396
			c69.132,23.009,140.074,41.162,210.336,60.344c70.428,19.227,141.482,35.843,212.953,50.69
			c70.305,14.605,140.932,27.272,211.947,37.902c70.971,10.624,142.582,17.021,214.143,22.17
			c151.269,10.884,303.352,10.234,454.931,10.839c151.233,0.604,303.553-1.374,454.408,10.847
			c15.948,1.292,31.733,3.203,47.712,4.285c1.927,0.13,1.919-2.87,0-3c-34.278-2.322-68.394-5.921-102.752-7.764
			c-38.135-2.045-76.306-3.378-114.484-4.291c-75.011-1.793-150.065-2.434-225.094-2.817
			c-151.645-0.775-303.593,0.388-455.084-7.434c-146.599-7.569-291.737-25.61-435.793-53.719
			c-143.174-27.937-283.207-65.929-423.277-106.274c-139.647-40.223-277.042-88.65-415.187-134.023
			c-17.872-5.87-35.754-11.71-53.646-17.517C1870.747,5895.686,1869.958,5898.582,1871.79,5899.176L1871.79,5899.176z"/>
	</g>
</g>
<g>
	<g>
		<path style="fill:#1D1D1B;" d="M1559.678,5465.067c-3.005,21.042,4.147,41.11,12.328,60.18
			c7.588,17.689,15.788,35.123,24.489,52.292c17.455,34.442,37.048,67.796,58.587,99.842
			c42.699,63.528,93.048,121.931,149.647,173.465c31.844,28.995,65.674,55.778,101.177,80.154c1.596,1.095,3.098-1.503,1.514-2.59
			c-62.244-42.736-119.215-92.996-169.52-149.295c-50.294-56.288-93.887-118.551-129.466-185.127
			c-9.799-18.337-18.986-37.002-27.534-55.955c-10.124-22.445-21.942-46.86-18.329-72.168
			C1562.84,5463.976,1559.95,5463.16,1559.678,5465.067L1559.678,5465.067z"/>
	</g>
</g>
<g>
	<g>
		<path style="fill:#1D1D1B;" d="M4097.914,6223.213c-23.761,0.853-47.537,1.097-71.312,1.229c-1.93,0.011-1.934,3.011,0,3
			c23.775-0.132,47.55-0.376,71.312-1.229C4099.839,6226.145,4099.848,6223.144,4097.914,6223.213L4097.914,6223.213z"/>
	</g>
</g>
<g>
	<g>
		<path style="fill:#1D1D1B;" d="M4269.48,4959.228c73.373,43.576,128.085,112.105,164.188,188.66
			c19.987,42.382,36.587,86.223,47.385,132.012c2.932,12.433,6.461,24.704,8.923,37.239c2.388,12.156,4.407,24.379,6.432,36.599
			c4.054,24.459,8.122,48.863,11.79,73.387c7.686,51.393,10.09,104.25,10.753,156.165c0.663,51.909-1.051,103.845-5.41,155.578
			c-4.278,50.775-11.359,101.346-21.019,151.374c-4.772,24.716-9.943,49.361-16.013,73.794
			c-5.989,24.11-12.293,48.632-21.182,71.862c-15.716,41.075-42.779,77.328-76.989,104.801
			c-32.005,25.702-69.586,43.867-108.52,56.411c-9.528,3.069-19.159,5.795-28.86,8.259c-1.87,0.475-1.078,3.369,0.798,2.893
			c78.115-19.841,153.832-60.274,196.53-131.112c26.064-43.241,37.567-94.283,48.305-143.107
			c10.795-49.086,19.615-98.779,25.333-148.726c12.094-105.628,13.646-212.738,3.846-318.626
			c-4.66-50.347-13.161-100.75-22.902-150.349c-5.038-25.65-11.901-51.324-19.783-76.239c-3.813-12.053-7.52-24.148-11.931-36
			c-1.703-4.575-5.361-9.595-6.414-14.241c-1.157-5.106-2.951-9.732-5.076-14.617c-34.067-78.346-81.934-151.017-152.214-201.366
			c-8.563-6.134-17.402-11.861-26.458-17.24C4269.331,4955.649,4267.82,4958.242,4269.48,4959.228L4269.48,4959.228z"/>
	</g>
</g>
<g>
	<g>
		<path style="fill:#1D1D1B;" d="M4078.356,6232.501c31.854-9.634,65.191-13.79,98.436-12.021
			c15.396,0.819,31.563,5.266,46.933,3.039c11.227-1.627,22.286-8.596,24.729-20.296c0.393-1.884-2.498-2.689-2.893-0.797
			c-3.262,15.623-20.686,19.318-34.293,18.45c-15.297-0.977-30.307-3.558-45.691-3.771c-29.785-0.412-59.515,3.883-88.018,12.504
			C4075.716,6230.166,4076.501,6233.063,4078.356,6232.501L4078.356,6232.501z"/>
	</g>
</g>
<g>
	<g>
		<path style="fill:#1D1D1B;" d="M4201.154,4925.258c26.895,7.623,52.043,20.355,74.055,37.594c1.503,1.177,3.641-0.932,2.121-2.122
			c-22.437-17.571-47.957-30.593-75.379-38.366C4200.091,4921.838,4199.296,4924.732,4201.154,4925.258L4201.154,4925.258z"/>
	</g>
</g>
<path style="fill:none;stroke:#FF0000;stroke-width:2;stroke-linecap:round;stroke-miterlimit:10;" d="M1577,1804
	c-7,10-15,20-22.279,30.236"/>
<path style="fill:none;stroke:#FF0000;stroke-width:2;stroke-linecap:round;stroke-miterlimit:10;" d="M1584,1832
	c-4.64,8.97-9.279,17.939-13.918,26.909"/>
<path style="fill:none;stroke:#FF0000;stroke-width:2;stroke-linecap:round;stroke-miterlimit:10;" d="M1598,1856
	c-4.762,9.524-9.524,19.047-14.286,28.571"/>
<path style="fill:none;stroke:#FF0000;stroke-width:2;stroke-linecap:round;stroke-miterlimit:10;" d="M1611,1883
	c-4.198,7.596-8.395,15.192-12.593,22.787"/>
<path style="fill:none;stroke:#FF0000;stroke-width:2;stroke-linecap:round;stroke-miterlimit:10;" d="M1630,1909
	c-6.332,7.176-12.663,14.352-18.995,21.528"/>
<path style="fill:none;stroke:#FF0000;stroke-width:2;stroke-linecap:round;stroke-miterlimit:10;" d="M1649,1926
	c-6,10-14,18-19.473,28.849"/>
<path style="fill:none;stroke:#FF0000;stroke-width:2;stroke-linecap:round;stroke-miterlimit:10;" d="M1669,1946
	c-4.806,6.729-9.613,13.458-14.419,20.187"/>
<path style="fill:none;stroke:#FF0000;stroke-width:2;stroke-linecap:round;stroke-miterlimit:10;" d="M1691,1959
	c-4.066,6.17-8.133,12.339-12.199,18.509"/>
<path style="fill:none;stroke:#FF0000;stroke-width:2;stroke-linecap:round;stroke-miterlimit:10;" d="M1706,1973
	c-3.253,4.338-6.507,8.676-9.76,13.013"/>
</svg>
